<svg xmlns="http://www.w3.org/2000/svg" width="15" height="13" viewBox="0 0 15 13"><g><g><g><g><path fill="#7e76f9" d="M14.781 2.082a6.184 6.184 0 0 1-1.74.465A2.98 2.98 0 0 0 14.372.915a6.215 6.215 0 0 1-1.927.717 3.062 3.062 0 0 0-2.213-.933C8.56.7 7.201 2.021 7.201 3.651c0 .23.027.457.078.672A8.688 8.688 0 0 1 1.03 1.24a2.87 2.87 0 0 0-.41 1.484c0 1.024.536 1.928 1.35 2.457a3.095 3.095 0 0 1-1.374-.37v.036c0 1.43 1.045 2.623 2.432 2.895a3.15 3.15 0 0 1-.8.103c-.195 0-.384-.019-.57-.055.386 1.174 1.506 2.027 2.832 2.05a6.19 6.19 0 0 1-3.766 1.262 6.62 6.62 0 0 1-.723-.04 8.74 8.74 0 0 0 4.648 1.328c5.578 0 8.627-4.498 8.627-8.4l-.01-.381a5.97 5.97 0 0 0 1.516-1.526z"/></g></g></g></g></svg>