<svg xmlns="http://www.w3.org/2000/svg" width="11" height="11" viewBox="0 0 11 11"><g><g><g><g><g><path fill="#7e76f9" d="M9.18 7.295A1.886 1.886 0 0 1 7.294 9.18H3.577a1.886 1.886 0 0 1-1.884-1.884V3.577c0-1.039.845-1.884 1.884-1.884h3.718c1.039 0 1.884.845 1.884 1.884zM7.294 1H3.577A2.58 2.58 0 0 0 1 3.577v3.718a2.58 2.58 0 0 0 2.577 2.577h3.718a2.58 2.58 0 0 0 2.577-2.577V3.577A2.58 2.58 0 0 0 7.295 1z"/><path fill="none" stroke="#7e76f9" stroke-miterlimit="20" stroke-width=".4" d="M9.18 7.295A1.886 1.886 0 0 1 7.294 9.18H3.577a1.886 1.886 0 0 1-1.884-1.884V3.577c0-1.039.845-1.884 1.884-1.884h3.718c1.039 0 1.884.845 1.884 1.884zM7.294 1H3.577A2.58 2.58 0 0 0 1 3.577v3.718a2.58 2.58 0 0 0 2.577 2.577h3.718a2.58 2.58 0 0 0 2.577-2.577V3.577A2.58 2.58 0 0 0 7.295 1z"/></g></g></g><g><g><g><path fill="#7e76f9" d="M5.436 7.134a1.7 1.7 0 0 1-1.698-1.698 1.7 1.7 0 0 1 1.698-1.698 1.7 1.7 0 0 1 1.698 1.698 1.7 1.7 0 0 1-1.698 1.698zm0-4.09a2.394 2.394 0 0 0-2.391 2.392 2.394 2.394 0 0 0 2.391 2.392 2.394 2.394 0 0 0 2.392-2.392 2.394 2.394 0 0 0-2.392-2.391z"/><path fill="none" stroke="#7e76f9" stroke-miterlimit="20" stroke-width=".4" d="M5.436 7.134a1.7 1.7 0 0 1-1.698-1.698 1.7 1.7 0 0 1 1.698-1.698 1.7 1.7 0 0 1 1.698 1.698 1.7 1.7 0 0 1-1.698 1.698zm0-4.09a2.394 2.394 0 0 0-2.391 2.392 2.394 2.394 0 0 0 2.391 2.392 2.394 2.394 0 0 0 2.392-2.392 2.394 2.394 0 0 0-2.392-2.391z"/></g></g></g><g><g><g><path fill="#7e76f9" d="M7.516 3.01a.347.347 0 1 1 .693 0 .347.347 0 0 1-.693 0z"/><path fill="none" stroke="#7e76f9" stroke-miterlimit="20" stroke-width=".4" d="M7.516 3.01a.347.347 0 1 1 .693 0 .347.347 0 0 1-.693 0z"/></g></g></g></g></g></svg>