<svg xmlns="http://www.w3.org/2000/svg" width="15" height="21" viewBox="0 0 15 21"><g><g><g><g><g><path fill="#7e76f9" d="M13.464 13.924a6.21 6.21 0 0 1-6.205 6.202 6.21 6.21 0 0 1-6.205-6.202V6.936A6.21 6.21 0 0 1 7.259.734a6.21 6.21 0 0 1 6.205 6.202zM7.26-.04c-3.85 0-6.981 3.13-6.981 6.977v6.988c0 3.847 3.132 6.977 6.98 6.977 3.85 0 6.982-3.13 6.982-6.977V6.936c0-3.847-3.132-6.977-6.981-6.977z"/></g><g><path fill="#7e76f9" d="M7.259 2.285a.388.388 0 0 0-.388.388v3.512a.388.388 0 1 0 .776 0V2.673a.388.388 0 0 0-.388-.388z"/></g></g></g></g></g></svg>