<svg xmlns="http://www.w3.org/2000/svg" width="24" height="19" viewBox="0 0 24 19"><g><g><g><g><path fill="#fff" d="M23.401 2.214c-.856.369-1.775.62-2.74.731A4.69 4.69 0 0 0 22.759.376a9.782 9.782 0 0 1-3.033 1.128A4.82 4.82 0 0 0 16.242.037c-2.635 0-4.773 2.08-4.773 4.645 0 .364.043.72.124 1.059C7.627 5.547 4.11 3.697 1.756.886a4.519 4.519 0 0 0-.645 2.335c0 1.613.843 3.035 2.122 3.867a4.872 4.872 0 0 1-2.162-.583v.058c0 2.25 1.646 4.13 3.828 4.557-.4.104-.821.162-1.257.162-.308 0-.607-.03-.899-.086.608 1.847 2.37 3.19 4.458 3.227a9.742 9.742 0 0 1-5.928 1.986c-.385 0-.764-.022-1.138-.063a13.758 13.758 0 0 0 7.316 2.09c8.78 0 13.58-7.08 13.58-13.22l-.017-.602a9.397 9.397 0 0 0 2.387-2.4z"/></g></g></g></g></svg>