<svg xmlns="http://www.w3.org/2000/svg" width="17" height="18" viewBox="0 0 17 18"><g><g><g><g><g><path fill="#fff" d="M11.91 1.921a3.573 3.573 0 0 1 3.569 3.57v7.043a3.573 3.573 0 0 1-3.57 3.569H4.868a3.573 3.573 0 0 1-3.57-3.57V5.49a3.573 3.573 0 0 1 3.57-3.569zM-.016 5.491v7.043a4.888 4.888 0 0 0 4.883 4.882h7.043a4.888 4.888 0 0 0 4.882-4.882V5.49A4.888 4.888 0 0 0 11.91.608H4.867A4.888 4.888 0 0 0-.016 5.49z"/></g></g></g><g><g><g><path fill="#fff" d="M11.605 9.012a3.22 3.22 0 0 1-3.217 3.217 3.22 3.22 0 0 1-3.217-3.217 3.22 3.22 0 0 1 3.217-3.217 3.22 3.22 0 0 1 3.217 3.217zm-7.747 0a4.535 4.535 0 0 0 4.53 4.53 4.535 4.535 0 0 0 4.53-4.53 4.535 4.535 0 0 0-4.53-4.53 4.535 4.535 0 0 0-4.53 4.53z"/></g></g></g><g><g><g><path fill="#fff" d="M3.792 5.073a.657.657 0 1 1 0-1.314.657.657 0 0 1 0 1.314z"/></g></g></g></g></g></svg>