<svg xmlns="http://www.w3.org/2000/svg" width="15" height="15" viewBox="0 0 15 15"><g><g><g><path fill="#fff" d="M14.768 11.602a.525.525 0 0 1-.007.745l-1.337 1.336-3.445-3.448a1.65 1.65 0 0 0 .218-.18l.544-.547.59-.59h.002a.535.535 0 0 1 .75-.002l2.685 2.686zM7.52 10.557c.462.397 1.129.474 1.69.266l3.538 3.539c-.846.824-2.945.725-4.792-.176-.792-.387-1.514-.885-2.198-1.406a18.8 18.8 0 0 1-1.92-1.692 19.737 19.737 0 0 1-1.686-1.924C1.633 8.479 1.131 7.759.744 6.962-.158 5.118-.264 3.019.56 2.172l3.537 3.54c-.208.56-.13 1.226.268 1.686.486.566 1 1.106 1.525 1.634.525.524 1.066 1.04 1.63 1.525zM4.685 4.941zM1.24 1.493L2.573.157A.53.53 0 0 1 3.32.15l2.685 2.688a.531.531 0 0 1-.003.75l-.588.587-.547.547c-.068.068-.129.141-.18.219z"/></g></g></g></svg>