<svg xmlns="http://www.w3.org/2000/svg" width="16" height="13" viewBox="0 0 16 13"><g><g><g><g><path fill="#fff" d="M1.536 4.26c.201.134.808.533 1.82 1.195 1.012.663 1.788 1.173 2.326 1.531.06.04.185.124.378.256.192.131.352.238.479.319.127.08.281.172.462.272.18.1.35.176.51.226.16.05.308.076.444.076H7.973c.136 0 .284-.025.444-.076.16-.05.33-.125.51-.226.181-.1.335-.191.462-.272.128-.081.287-.188.48-.32l.377-.255 4.155-2.726a4.106 4.106 0 0 0 1.084-1.032c.29-.402.435-.824.435-1.266 0-.37-.141-.685-.422-.948a1.414 1.414 0 0 0-.999-.394H1.429C.974.62.623.765.377 1.056c-.245.29-.368.654-.368 1.09 0 .353.163.734.488 1.145a4.3 4.3 0 0 0 1.039.97z"/></g><g><path fill="#fff" d="M15.032 5.158A185.238 185.238 0 0 0 10.61 8.05c-.337.235-.61.418-.821.55-.21.131-.49.265-.84.402-.348.137-.674.206-.976.206h-.018c-.302 0-.627-.069-.976-.206a5.19 5.19 0 0 1-.84-.402c-.21-.132-.483-.315-.82-.55-.8-.553-2.27-1.518-4.413-2.893a4.64 4.64 0 0 1-.897-.73v6.66c0 .369.139.685.417.947.278.263.613.395 1.003.395H14.5c.39 0 .725-.132 1.003-.395.279-.262.418-.578.418-.947v-6.66c-.255.268-.55.512-.888.73z"/></g></g></g></g></svg>