<svg xmlns="http://www.w3.org/2000/svg" width="91" height="91" viewBox="0 0 91 91"><defs><linearGradient id="wiila" x1="48.59" x2="92.86" y1="53.41" y2="95.35" gradientUnits="userSpaceOnUse"><stop offset="0" stop-color="#7e76f9"/><stop offset="1" stop-color="#b2adfc"/></linearGradient><linearGradient id="wiilb" x1="57.9" x2="83.2" y1="60.55" y2="84.51" gradientUnits="userSpaceOnUse"><stop offset="0" stop-color="#7e76f9"/><stop offset="1" stop-color="#b2adfc"/></linearGradient><linearGradient id="wiilc" x1="64.11" x2="76.76" y1="65.3" y2="77.28" gradientUnits="userSpaceOnUse"><stop offset="0" stop-color="#7e76f9"/><stop offset="1" stop-color="#b2adfc"/></linearGradient><linearGradient id="wiild" x1="26.98" x2="64.94" y1="4.52" y2="52.46" gradientUnits="userSpaceOnUse"><stop offset="0" stop-color="#7e76f9"/><stop offset="1" stop-color="#b2adfc"/></linearGradient><linearGradient id="wiile" x1="-.44" x2="31.19" y1="56.05" y2="95" gradientUnits="userSpaceOnUse"><stop offset="0" stop-color="#7e76f9"/><stop offset="1" stop-color="#b2adfc"/></linearGradient><linearGradient id="wiilf" x1="5.77" x2="24.74" y1="58.69" y2="61.68" gradientUnits="userSpaceOnUse"><stop offset="0" stop-color="#7e76f9"/><stop offset="1" stop-color="#b2adfc"/></linearGradient><linearGradient id="wiilg" x1="6.26" x2="9.43" y1="64.5" y2="67.5" gradientUnits="userSpaceOnUse"><stop offset="0" stop-color="#7e76f9"/><stop offset="1" stop-color="#b2adfc"/></linearGradient><linearGradient id="wiilh" x1="11.79" x2="24.43" y1="64.5" y2="67.5" gradientUnits="userSpaceOnUse"><stop offset="0" stop-color="#7e76f9"/><stop offset="1" stop-color="#b2adfc"/></linearGradient><linearGradient id="wiili" x1="5.77" x2="24.74" y1="70.31" y2="73.31" gradientUnits="userSpaceOnUse"><stop offset="0" stop-color="#7e76f9"/><stop offset="1" stop-color="#b2adfc"/></linearGradient><linearGradient id="wiilj" x1="5.77" x2="24.74" y1="76.13" y2="79.12" gradientUnits="userSpaceOnUse"><stop offset="0" stop-color="#7e76f9"/><stop offset="1" stop-color="#b2adfc"/></linearGradient><linearGradient id="wiilk" x1="20.8" x2="23.96" y1="81.94" y2="84.94" gradientUnits="userSpaceOnUse"><stop offset="0" stop-color="#7e76f9"/><stop offset="1" stop-color="#b2adfc"/></linearGradient><linearGradient id="wiill" x1="5.97" x2="18.62" y1="81.94" y2="84.94" gradientUnits="userSpaceOnUse"><stop offset="0" stop-color="#7e76f9"/><stop offset="1" stop-color="#b2adfc"/></linearGradient><linearGradient id="wiilm" x1="29.91" x2="47.96" y1="64.45" y2="78.55" gradientUnits="userSpaceOnUse"><stop offset="0" stop-color="#7e76f9"/><stop offset="1" stop-color="#b2adfc"/></linearGradient><linearGradient id="wiiln" x1="13.07" x2="31.12" y1="17.07" y2="54.08" gradientUnits="userSpaceOnUse"><stop offset="0" stop-color="#7e76f9"/><stop offset="1" stop-color="#b2adfc"/></linearGradient><linearGradient id="wiilo" x1="61.01" x2="79.53" y1="21.75" y2="50.83" gradientUnits="userSpaceOnUse"><stop offset="0" stop-color="#7e76f9"/><stop offset="1" stop-color="#b2adfc"/></linearGradient></defs><g><g><g><path fill="url(#wiila)" d="M84.927 80.105l-4.57 4.57-3.106-1.843-.699.334c-.45.213-.911.407-1.385.574l-.733.26-.892 3.498H67.08L66.187 84l-.733-.26c-.474-.166-.936-.36-1.385-.574l-.699-.334-3.106 1.843-4.57-4.57L57.537 77l-.334-.7c-.214-.45-.407-.91-.574-1.384l-.26-.733-3.5-.892v-6.463l3.499-.893.26-.732c.166-.474.359-.936.574-1.385l.334-.7-1.843-3.105 4.57-4.57 3.106 1.843.699-.334c.45-.214.91-.407 1.385-.574l.732-.26.892-3.5h6.464l.892 3.499.732.26c.474.165.936.358 1.386.573l.699.335 3.106-1.843 4.57 4.57-1.844 3.105.335.7c.213.45.406.91.574 1.385l.26.732 3.5.892v6.464l-3.499.892-.26.732c-.166.474-.359.936-.574 1.385l-.334.7zm5.73-4.56V64.568l-4.204-1.074c-.03-.071-.059-.142-.09-.212l2.214-3.731-7.762-7.762-3.73 2.213-.213-.089-1.074-4.203H64.82l-1.075 4.205a10.9 10.9 0 0 0-.212.089l-3.73-2.214-7.763 7.762 2.213 3.731-.088.212-4.204 1.075v10.977l4.205 1.074c.03.071.058.142.089.213l-2.214 3.73 7.763 7.763 3.73-2.214.213.089 1.074 4.203h10.977l1.075-4.205.212-.088 3.73 2.213 7.763-7.762-2.214-3.73.09-.213z"/></g><g><path fill="url(#wiilb)" d="M70.31 78.778c-4.81 0-8.72-3.91-8.72-8.72 0-4.81 3.91-8.72 8.72-8.72 4.81 0 8.72 3.91 8.72 8.72 0 4.81-3.91 8.72-8.72 8.72zm0-20.348c-6.411 0-11.627 5.217-11.627 11.628 0 6.41 5.216 11.627 11.627 11.627 6.411 0 11.627-5.216 11.627-11.627 0-6.411-5.216-11.628-11.627-11.628z"/></g><g><path fill="url(#wiilc)" d="M70.31 72.964a2.91 2.91 0 0 1-2.907-2.906 2.91 2.91 0 0 1 2.907-2.907 2.91 2.91 0 0 1 2.907 2.907 2.91 2.91 0 0 1-2.907 2.906zm0-8.72a5.82 5.82 0 0 0-5.814 5.814 5.82 5.82 0 0 0 5.814 5.813 5.82 5.82 0 0 0 5.813-5.813 5.82 5.82 0 0 0-5.813-5.814z"/></g><g><path fill="url(#wiild)" d="M36.882 21.69a2.898 2.898 0 0 1-1.454-2.503c0-1.07.589-1.997 1.454-2.501zm8.72-18.489c5.609 0 10.174 4.564 10.174 10.174v.808a5.75 5.75 0 0 0-2.907-.808h-.25a8.41 8.41 0 0 1-5.99-2.48l-1.027-1.03-1.027 1.03a8.413 8.413 0 0 1-5.99 2.48h-.25a5.75 5.75 0 0 0-2.907.808v-.808c0-5.61 4.566-10.174 10.174-10.174zm8.72 13.486a2.898 2.898 0 0 1 1.454 2.503c0 1.07-.588 1.997-1.453 2.502zm-8.72 11.222a5.82 5.82 0 0 1-5.813-5.814v-5.912c2.127-.224 4.135-1 5.813-2.32 1.679 1.322 3.686 2.096 5.814 2.32v5.912a5.82 5.82 0 0 1-5.814 5.814zm6.846 5.39l-1.881 5.641-2.911-1.455 2.93-4.883zm7.688 5.906v4.691H31.068v-4.691a4.38 4.38 0 0 1 2.83-4.083l2.136-.8 2.906 8.717 6.662-3.331 6.662 3.331 2.906-8.717 2.138.801a4.377 4.377 0 0 1 2.828 4.082zm-19.518-6.603l2.93 4.882-2.91 1.455-1.881-5.64zm7.89-2.189l-2.906 4.845-2.907-4.845v-.106a8.642 8.642 0 0 0 2.907.509c1.02 0 1.996-.186 2.907-.509zm-11.154-5.51a8.735 8.735 0 0 0 2.434 3.675v1.232l-6.91 2.591a7.299 7.299 0 0 0-4.717 6.804v7.598h34.882v-7.598a7.303 7.303 0 0 0-4.715-6.805l-6.912-2.591v-1.231a8.717 8.717 0 0 0 2.434-3.674c2.738-.47 4.833-2.846 4.833-5.715v-5.814c0-7.212-5.868-13.08-13.08-13.08-7.214 0-13.082 5.868-13.082 13.08v5.814c0 2.869 2.095 5.245 4.833 5.715z"/></g><g><path fill="url(#wiile)" d="M3.453 55.524h23.255v31.974H3.453zM.547 90.405h29.068V52.617H.547z"/></g><g><path fill="url(#wiilf)" d="M6.36 58.43h17.441v2.907H6.361z"/></g><g><path fill="url(#wiilg)" d="M6.36 64.244h2.907v2.907H6.36z"/></g><g><path fill="url(#wiilh)" d="M12.174 64.244H23.8v2.907H12.174z"/></g><g><path fill="url(#wiili)" d="M6.36 70.058h17.441v2.906H6.361z"/></g><g><path fill="url(#wiilj)" d="M6.36 75.871h17.441v2.907H6.361z"/></g><g><path fill="url(#wiilk)" d="M20.894 81.685h2.907v2.907h-2.907z"/></g><g><path fill="url(#wiill)" d="M6.36 81.685h11.627v2.907H6.36z"/></g><g><path fill="url(#wiilm)" d="M39.363 65.272l-2.056-2.056-6.84 6.842 6.84 6.84 2.056-2.054-3.333-3.333h11.025v-2.907H36.03z"/></g><g><path fill="url(#wiiln)" d="M16.534 23.549c0-.8.652-1.454 1.453-1.454h6.666l-3.333 3.333 2.055 2.055 6.841-6.841-6.84-6.841-2.056 2.055 3.333 3.333h-6.666a4.366 4.366 0 0 0-4.36 4.36V49.71h2.907z"/></g><g><path fill="url(#wiilo)" d="M70.31 23.549V41.84l-3.333-3.332-2.055 2.055 6.841 6.841 6.841-6.841-2.055-2.055-3.332 3.332V23.55a4.366 4.366 0 0 0-4.36-4.36h-7.268v2.906h7.267c.802 0 1.454.653 1.454 1.454z"/></g></g></g></svg>