<svg xmlns="http://www.w3.org/2000/svg" width="90" height="90" viewBox="0 0 90 90"><defs><linearGradient id="rw7la" x1="15.39" x2="73.78" y1="4.34" y2="82.53" gradientUnits="userSpaceOnUse"><stop offset="0" stop-color="#88cb88"/><stop offset="1" stop-color="#43b943"/></linearGradient><linearGradient id="rw7lb" x1="-7.13" x2="99.42" y1="-32.87" y2="1529.05" gradientUnits="userSpaceOnUse"><stop offset="0" stop-color="#88cb88"/><stop offset="1" stop-color="#43b943"/></linearGradient><linearGradient id="rw7lc" x1="-2.03" x2="30.08" y1="-.66" y2="350.67" gradientUnits="userSpaceOnUse"><stop offset="0" stop-color="#88cb88"/><stop offset="1" stop-color="#43b943"/></linearGradient><linearGradient id="rw7ld" x1="36.08" x2="53.59" y1="6.76" y2="397.18" gradientUnits="userSpaceOnUse"><stop offset="0" stop-color="#88cb88"/><stop offset="1" stop-color="#43b943"/></linearGradient><linearGradient id="rw7le" x1="18.34" x2="70.88" y1="-11.8" y2="691.1" gradientUnits="userSpaceOnUse"><stop offset="0" stop-color="#88cb88"/><stop offset="1" stop-color="#43b943"/></linearGradient><linearGradient id="rw7lf" x1="-13.12" x2="39.42" y1="-20.79" y2="682.11" gradientUnits="userSpaceOnUse"><stop offset="0" stop-color="#88cb88"/><stop offset="1" stop-color="#43b943"/></linearGradient><linearGradient id="rw7lg" x1="49.81" x2="102.35" y1="-28.28" y2="674.62" gradientUnits="userSpaceOnUse"><stop offset="0" stop-color="#88cb88"/><stop offset="1" stop-color="#43b943"/></linearGradient><linearGradient id="rw7lh" x1="41.99" x2="47.84" y1="58.28" y2="136.47" gradientUnits="userSpaceOnUse"><stop offset="0" stop-color="#88cb88"/><stop offset="1" stop-color="#43b943"/></linearGradient></defs><g><g><g><g><g><path fill="url(#rw7la)" d="M29.966 10.488V7.491h29.966v2.997z"/></g></g></g><g><g><g><path fill="url(#rw7lb)" d="M68.922 58.434h-9.74a2.25 2.25 0 0 1-2.247-2.248 2.25 2.25 0 0 1 2.248-2.247h9.739a2.25 2.25 0 0 1 2.247 2.247 2.25 2.25 0 0 1-2.247 2.248zm-9.74 7.491a2.25 2.25 0 0 1-2.247-2.247 2.25 2.25 0 0 1 2.248-2.248h9.739a2.25 2.25 0 0 1 2.247 2.248 2.25 2.25 0 0 1-2.247 2.247zm7.492 7.492h-9.739a2.25 2.25 0 0 1-2.247-2.248 2.25 2.25 0 0 1 2.247-2.247h9.74a2.25 2.25 0 0 1 2.247 2.247 2.25 2.25 0 0 1-2.248 2.248zm-4.495 7.491H52.44a2.25 2.25 0 0 1-2.247-2.247 2.25 2.25 0 0 1 2.247-2.248h9.74a2.25 2.25 0 0 1 2.247 2.248 2.25 2.25 0 0 1-2.248 2.247zm11.987-24.722a5.25 5.25 0 0 0-5.244-5.244h-2.997V29.966H62.93v20.976h-3.746a5.25 5.25 0 0 0-5.244 5.244c0 1.468.61 2.793 1.585 3.746a5.223 5.223 0 0 0-1.585 3.746c0 1.01.3 1.946.797 2.747-1.792.835-3.045 2.64-3.045 4.744 0 .808.199 1.564.526 2.248H40.454c0-4.582-2.296-8.636-5.797-11.074 3.386-1.29 5.797-4.57 5.797-8.404 0-.828-.67-1.499-1.498-1.499H26.969V37.457h-2.996V52.44a4.5 4.5 0 0 0-4.495 4.495v32.963h2.996V56.935a1.5 1.5 0 0 1 1.499-1.498h13.294a6.003 6.003 0 0 1-5.803 4.495H26.97a1.498 1.498 0 1 0 0 2.997c5.783 0 10.488 4.704 10.488 10.488v1.498c0 .827.67 1.498 1.499 1.498h8.767a5.183 5.183 0 0 0-.527 2.248 5.25 5.25 0 0 0 5.244 5.244v5.993h2.997v-5.993h6.742a5.25 5.25 0 0 0 5.244-5.244 5.18 5.18 0 0 0-.537-2.27c2.791-.113 5.032-2.403 5.032-5.222 0-1.01-.3-1.946-.797-2.747 1.792-.835 3.045-2.64 3.045-4.744 0-1.468-.61-2.793-1.586-3.746a5.223 5.223 0 0 0 1.586-3.746z"/></g></g></g><g><g><g><path fill="url(#rw7lc)" d="M17.836 20.223c-.278.28-.433.659-.433 1.053 0 1.487-1.19 2.697-2.651 2.697H10.94a1.5 1.5 0 0 0-.308-1.653 5.73 5.73 0 0 1-1.453-2.56c1.43.603 2.965.916 4.537.916.828 0 1.498-.67 1.498-1.498v-1.573c0-.62.492-1.124 1.095-1.124s1.094.504 1.094 1.124c0 .469.22.91.593 1.194l.714.54zm4.634-1.152a1.497 1.497 0 0 0-.588-1.087l-1.56-1.182c-.373-1.89-2.03-3.317-4.013-3.317-2.238 0-4.062 1.818-4.092 4.065a8.697 8.697 0 0 1-3.365-1.358l-.522-.353a1.497 1.497 0 0 0-2.337 1.241v1.23c0 1.805.544 3.527 1.554 4.974l-1.12 1.134a1.497 1.497 0 0 0 1.064 2.551h7.26c2.897 0 5.29-2.207 5.612-5.04l1.678-1.697a1.5 1.5 0 0 0 .43-1.16z"/></g></g></g><g><g><g><path fill="url(#rw7ld)" d="M49.444 25.471v-2.997h-4.495c-.828 0-1.498.671-1.498 1.499v4.495h-2.997v2.996h2.997v5.993h2.996v-5.993h2.997v-2.996h-2.997V25.47z"/></g></g></g><g><g><g><path fill="url(#rw7le)" d="M55.437 38.956a1.5 1.5 0 0 1-1.498 1.498h-17.98a1.5 1.5 0 0 1-1.498-1.498v-17.98a1.5 1.5 0 0 1 1.498-1.498h17.98a1.5 1.5 0 0 1 1.498 1.498zM53.94 16.48h-17.98a4.5 4.5 0 0 0-4.495 4.495v17.98a4.5 4.5 0 0 0 4.495 4.495h17.98a4.5 4.5 0 0 0 4.495-4.495v-17.98a4.5 4.5 0 0 0-4.495-4.495z"/></g></g></g><g><g><g><path fill="url(#rw7lf)" d="M23.973 29.966a1.5 1.5 0 0 1-1.499 1.498H4.494a1.5 1.5 0 0 1-1.497-1.498v-17.98a1.5 1.5 0 0 1 1.498-1.498h17.98a1.5 1.5 0 0 1 1.498 1.498zM22.474 7.491H4.494A4.5 4.5 0 0 0 0 11.986v17.98a4.5 4.5 0 0 0 4.495 4.495h17.98a4.5 4.5 0 0 0 4.494-4.495v-17.98a4.5 4.5 0 0 0-4.495-4.495z"/></g></g></g><g><g><g><path fill="url(#rw7lg)" d="M86.901 11.986h-3.148c-.696-3.415-3.722-5.993-7.34-5.993-3.617 0-6.644 2.578-7.34 5.993h-3.148V4.495a1.5 1.5 0 0 1 1.498-1.498h17.98a1.5 1.5 0 0 1 1.498 1.498zm-14.983 1.499a4.5 4.5 0 0 1 4.495-4.495 4.5 4.5 0 0 1 4.495 4.495 4.5 4.5 0 0 1-4.495 4.495 4.5 4.5 0 0 1-4.495-4.495zm14.983 8.99a1.5 1.5 0 0 1-1.498 1.498h-17.98a1.5 1.5 0 0 1-1.498-1.499v-7.491h3.148c.696 3.415 3.723 5.993 7.34 5.993 3.618 0 6.644-2.578 7.34-5.993h3.148zM85.403 0h-17.98a4.5 4.5 0 0 0-4.494 4.495v17.98a4.5 4.5 0 0 0 4.494 4.494h17.98a4.5 4.5 0 0 0 4.495-4.495V4.494A4.5 4.5 0 0 0 85.403 0z"/></g></g></g><g><g><g><path fill="url(#rw7lh)" d="M43.45 64.427V61.43h2.997v2.997z"/></g></g></g></g></g></svg>