<svg xmlns="http://www.w3.org/2000/svg" width="91" height="85" viewBox="0 0 91 85"><defs><linearGradient id="h6cja" x1="90.14" x2="108.55" y1="-21.72" y2="99.8" gradientUnits="userSpaceOnUse"><stop offset="0" stop-color="#fc6681"/><stop offset="1" stop-color="#fc6681"/></linearGradient><linearGradient id="h6cjb" x1="13.41" x2="17.72" y1="55.47" y2="57.31" gradientUnits="userSpaceOnUse"><stop offset="0" stop-color="#fc6681"/><stop offset="1" stop-color="#fc6681"/></linearGradient><linearGradient id="h6cjc" x1="31.43" x2="38.19" y1="47.95" y2="47.35" gradientUnits="userSpaceOnUse"><stop offset="0" stop-color="#fc6681"/><stop offset="1" stop-color="#fc6681"/></linearGradient><linearGradient id="h6cjd" x1="25.43" x2="30.33" y1="43.47" y2="44.69" gradientUnits="userSpaceOnUse"><stop offset="0" stop-color="#fc6681"/><stop offset="1" stop-color="#fc6681"/></linearGradient><linearGradient id="h6cje" x1="78.01" x2="82.61" y1="53.99" y2="55.51" gradientUnits="userSpaceOnUse"><stop offset="0" stop-color="#fc6681"/><stop offset="1" stop-color="#fc6681"/></linearGradient><linearGradient id="h6cjf" x1="81.02" x2="85.61" y1="60" y2="61.53" gradientUnits="userSpaceOnUse"><stop offset="0" stop-color="#fc6681"/><stop offset="1" stop-color="#fc6681"/></linearGradient><linearGradient id="h6cjg" x1="47.97" x2="52.87" y1="16.43" y2="17.65" gradientUnits="userSpaceOnUse"><stop offset="0" stop-color="#fc6681"/><stop offset="1" stop-color="#fc6681"/></linearGradient><linearGradient id="h6cjh" x1="61.49" x2="66.39" y1="13.42" y2="14.65" gradientUnits="userSpaceOnUse"><stop offset="0" stop-color="#fc6681"/><stop offset="1" stop-color="#fc6681"/></linearGradient><linearGradient id="h6cji" x1="49.47" x2="53.77" y1="25.42" y2="27.27" gradientUnits="userSpaceOnUse"><stop offset="0" stop-color="#fc6681"/><stop offset="1" stop-color="#fc6681"/></linearGradient><linearGradient id="h6cjj" x1="56.98" x2="61.28" y1="7.4" y2="9.25" gradientUnits="userSpaceOnUse"><stop offset="0" stop-color="#fc6681"/><stop offset="1" stop-color="#fc6681"/></linearGradient><linearGradient id="h6cjk" x1="13.52" x2="14.13" y1="5.24" y2="9.57" gradientUnits="userSpaceOnUse"><stop offset="0" stop-color="#fc6681"/><stop offset="1" stop-color="#fc6681"/></linearGradient><linearGradient id="h6cjl" x1="19.53" x2="20.14" y1="5.24" y2="9.57" gradientUnits="userSpaceOnUse"><stop offset="0" stop-color="#fc6681"/><stop offset="1" stop-color="#fc6681"/></linearGradient><linearGradient id="h6cjm" x1="25.53" x2="26.14" y1="5.24" y2="9.57" gradientUnits="userSpaceOnUse"><stop offset="0" stop-color="#fc6681"/><stop offset="1" stop-color="#fc6681"/></linearGradient></defs><g><g><g><g><g><path fill="url(#h6cja)" d="M87.134 48.074h-19.53v-3.005c0-.828.674-1.502 1.502-1.502H85.63c.828 0 1.503.674 1.503 1.502zm0 25.539h-19.53V51.078h19.53zm0 6.01c0 .827-.675 1.501-1.503 1.501H69.106a1.505 1.505 0 0 1-1.502-1.502v-3.005h19.53zM64.599 45.068v3.005H42.064V34.553a4.512 4.512 0 0 0-4.506-4.507H7.512V7.512a4.512 4.512 0 0 1 4.506-4.507H78.12a4.512 4.512 0 0 1 4.507 4.507v33.05H69.106a4.512 4.512 0 0 0-4.507 4.507zm0 15.023H42.064v-9.014H64.6zM42.064 70.608v-7.511h10.871l2.05 7.511zm14.041 4.112c.125.455.032.931-.255 1.307a1.49 1.49 0 0 1-1.195.59h-12.59v-3.004h13.738zM39.06 37.558H3.005v-3.005c0-.828.674-1.502 1.502-1.502h33.05c.828 0 1.503.674 1.503 1.502zm0 36.055H3.005v-33.05H39.06zm0 6.01c0 .827-.675 1.501-1.502 1.501H4.507a1.505 1.505 0 0 1-1.502-1.502v-3.005H39.06zM85.63 7.511C85.631 3.37 82.261 0 78.12 0H12.018C7.877 0 4.507 3.37 4.507 7.512v22.534A4.512 4.512 0 0 0 0 34.553v45.07a4.512 4.512 0 0 0 4.507 4.506h33.05a4.512 4.512 0 0 0 4.507-4.507h12.591a4.473 4.473 0 0 0 3.582-1.771 4.474 4.474 0 0 0 .766-3.921l-2.954-10.833h8.55v16.525a4.512 4.512 0 0 0 4.507 4.507H85.63a4.512 4.512 0 0 0 4.507-4.507V45.069a4.512 4.512 0 0 0-4.507-4.507z"/></g></g></g><g><g><g><path fill="url(#h6cjb)" d="M10.076 64.158L7.95 62.033l6.01-6.01 2.124 2.125z"/></g></g></g><g><g><g><path fill="url(#h6cjc)" d="M16.084 68.665L13.96 66.54l18.027-18.028 2.125 2.125z"/></g></g></g><g><g><g><path fill="url(#h6cjd)" d="M19.089 55.146l-2.125-2.125 9.013-9.013 2.125 2.124z"/></g></g></g><g><g><g><path fill="url(#h6cje)" d="M73.17 64.16l-2.125-2.125 7.51-7.51 2.125 2.125z"/></g></g></g><g><g><g><path fill="url(#h6cjf)" d="M76.174 70.175l-2.125-2.124 7.51-7.51 2.125 2.124z"/></g></g></g><g><g><g><path fill="url(#h6cjg)" d="M41.623 28.104l-2.125-2.125 9.013-9.013 2.125 2.125z"/></g></g></g><g><g><g><path fill="url(#h6cjh)" d="M55.144 25.1l-2.124-2.125 9.013-9.013 2.125 2.124z"/></g></g></g><g><g><g><path fill="url(#h6cji)" d="M46.13 34.115l-2.125-2.125 6.009-6.009 2.125 2.125z"/></g></g></g><g><g><g><path fill="url(#h6cjj)" d="M53.632 16.105l-2.124-2.125 6.024-6.024 2.124 2.124z"/></g></g></g><g><g><g><path fill="url(#h6cjk)" d="M10.516 9.014V6.009h3.005v3.005z"/></g></g></g><g><g><g><path fill="url(#h6cjl)" d="M16.525 9.014V6.009h3.005v3.005z"/></g></g></g><g><g><g><path fill="url(#h6cjm)" d="M22.535 9.014V6.009h3.004v3.005z"/></g></g></g></g></g></svg>