<svg xmlns="http://www.w3.org/2000/svg" width="86" height="83" viewBox="0 0 86 83"><defs><linearGradient id="igc9a" x1="25.27" x2="43.45" y1="15.61" y2="43.31" gradientUnits="userSpaceOnUse"><stop offset="0" stop-color="#fe7ebb"/><stop offset="1" stop-color="#fe3595"/></linearGradient><linearGradient id="igc9b" x1="15.68" x2="45.88" y1="14.72" y2="102.88" gradientUnits="userSpaceOnUse"><stop offset="0" stop-color="#fe7ebb"/><stop offset="1" stop-color="#fe3595"/></linearGradient><linearGradient id="igc9c" x1="26.69" x2="52.74" y1="2.62" y2="27.93" gradientUnits="userSpaceOnUse"><stop offset="0" stop-color="#fe7ebb"/><stop offset="1" stop-color="#fe3595"/></linearGradient><linearGradient id="igc9d" x1="17.89" x2="21.11" y1="45.06" y2="60.47" gradientUnits="userSpaceOnUse"><stop offset="0" stop-color="#fe7ebb"/><stop offset="1" stop-color="#fe3595"/></linearGradient><linearGradient id="igc9e" x1="29.36" x2="32.58" y1="39.44" y2="62.09" gradientUnits="userSpaceOnUse"><stop offset="0" stop-color="#fe7ebb"/><stop offset="1" stop-color="#fe3595"/></linearGradient><linearGradient id="igc9f" x1="40.83" x2="44.04" y1="45.06" y2="60.47" gradientUnits="userSpaceOnUse"><stop offset="0" stop-color="#fe7ebb"/><stop offset="1" stop-color="#fe3595"/></linearGradient><linearGradient id="igc9g" x1="52.29" x2="55.51" y1="51.58" y2="58.58" gradientUnits="userSpaceOnUse"><stop offset="0" stop-color="#fe7ebb"/><stop offset="1" stop-color="#fe3595"/></linearGradient><linearGradient id="igc9h" x1="57.19" x2="72.52" y1="28.51" y2="81.99" gradientUnits="userSpaceOnUse"><stop offset="0" stop-color="#fe7ebb"/><stop offset="1" stop-color="#fe3595"/></linearGradient><linearGradient id="igc9i" x1="58.92" x2="69.01" y1="30.22" y2="57.22" gradientUnits="userSpaceOnUse"><stop offset="0" stop-color="#fe7ebb"/><stop offset="1" stop-color="#fe3595"/></linearGradient></defs><g><g><g><path fill="url(#igc9a)" d="M42.939 34.591a1.668 1.668 0 0 1-1.666-1.666c0-.918.747-1.666 1.666-1.666.918 0 1.665.748 1.665 1.666 0 .919-.747 1.666-1.665 1.666zm-11.466-6.51a1.668 1.668 0 0 1-1.666-1.666c0-.918.747-1.666 1.666-1.666.918 0 1.665.748 1.665 1.666 0 .919-.747 1.666-1.665 1.666zm-11.466 6.51a1.668 1.668 0 0 1-1.666-1.666c0-.918.748-1.666 1.666-1.666.918 0 1.666.748 1.666 1.666 0 .919-.748 1.666-1.666 1.666zm34.397-19.35c.919 0 1.666.747 1.666 1.666 0 .918-.747 1.666-1.666 1.666a1.668 1.668 0 0 1-1.665-1.666c0-.919.747-1.666 1.665-1.666zm0 5.83a4.169 4.169 0 0 0 4.164-4.164 4.169 4.169 0 0 0-4.164-4.164 4.169 4.169 0 0 0-4.164 4.164c0 .938.312 1.804.837 2.5l-6.842 9.562a4.147 4.147 0 0 0-4.13.91l-4.561-2.588a4.169 4.169 0 0 0-4.07-5.04 4.169 4.169 0 0 0-4.072 5.04l-4.56 2.588a4.148 4.148 0 0 0-2.834-1.118 4.169 4.169 0 0 0-4.165 4.165 4.169 4.169 0 0 0 4.165 4.164 4.169 4.169 0 0 0 4.07-5.04l4.56-2.588a4.148 4.148 0 0 0 2.835 1.118c1.094 0 2.09-.425 2.835-1.118l4.56 2.588a4.169 4.169 0 0 0 4.07 5.04 4.17 4.17 0 0 0 4.165-4.164c0-.938-.312-1.804-.837-2.501l6.842-9.561c.408.134.844.207 1.296.207z"/></g><g><path fill="url(#igc9b)" d="M59.766 66.945a.342.342 0 0 1-.342.342H14.988a.342.342 0 0 1-.342-.342v-2.75h45.12zm9.991-5.248H3.534c-.571 0-1.036-.464-1.036-1.035V9.123c0-.57.465-1.035 1.036-1.035h5.889a1.25 1.25 0 1 0 0-2.498h-5.89A3.538 3.538 0 0 0 0 9.123v51.539a3.538 3.538 0 0 0 3.534 3.534h8.613v2.749a2.844 2.844 0 0 0 2.84 2.84h12.506l-5.887 11.493a1.25 1.25 0 0 0 2.224 1.14l6.47-12.633h13.812l6.47 12.632a1.249 1.249 0 1 0 2.223-1.139L46.92 69.785h12.505a2.844 2.844 0 0 0 2.84-2.84v-2.75h7.493a1.25 1.25 0 1 0 0-2.498z"/></g><g><path fill="url(#igc9c)" d="M32.77 3.134c0-.35.286-.636.636-.636h7.599c.35 0 .636.286.636.636V5.59h-8.87V3.134zM14.42 8.088h56.457c.571 0 1.036.464 1.036 1.035v11.878a1.25 1.25 0 1 0 2.498 0V9.123a3.538 3.538 0 0 0-3.534-3.533H44.14V3.134A3.138 3.138 0 0 0 41.005 0h-7.599a3.138 3.138 0 0 0-3.134 3.134V5.59H14.42a1.25 1.25 0 1 0 0 2.498z"/></g><g><path fill="url(#igc9d)" d="M21.292 54.515h-2.57v-8.54h2.57zm-3.819-11.038c-.69 0-1.25.559-1.25 1.249v11.039c0 .69.56 1.249 1.25 1.249h5.068c.69 0 1.25-.56 1.25-1.25V44.727c0-.69-.56-1.25-1.25-1.25z"/></g><g><path fill="url(#igc9e)" d="M32.758 54.515h-2.57V39.591h2.57zm-3.82-17.423c-.69 0-1.249.56-1.249 1.25v17.423c0 .69.56 1.249 1.25 1.249h5.068c.69 0 1.249-.56 1.249-1.25V38.343c0-.69-.56-1.25-1.25-1.25z"/></g><g><path fill="url(#igc9f)" d="M44.223 54.515h-2.57v-8.54h2.57zm-3.819-11.038c-.69 0-1.249.559-1.249 1.249v11.039c0 .69.56 1.249 1.25 1.249h5.067c.69 0 1.25-.56 1.25-1.25V44.727c0-.69-.56-1.25-1.25-1.25z"/></g><g><path fill="url(#igc9g)" d="M51.87 50.848c-.69 0-1.25.56-1.25 1.25v3.667c0 .69.56 1.249 1.25 1.249h5.068a1.25 1.25 0 1 0 0-2.499H53.12v-2.418c0-.69-.559-1.249-1.249-1.249z"/></g><g><path fill="url(#igc9h)" d="M81.658 67.195a2.253 2.253 0 0 1-3.075-.823L71.69 54.428c.69-.282 1.367-.611 2.024-.99.658-.38 1.281-.803 1.87-1.261l6.897 11.944c.198.343.302.732.302 1.123 0 .803-.431 1.55-1.125 1.951zM61.97 52.655a13.74 13.74 0 0 1-8.397-6.444c-3.813-6.604-1.542-15.078 5.062-18.891a13.744 13.744 0 0 1 6.891-1.85c4.783 0 9.441 2.48 12 6.912a13.74 13.74 0 0 1 1.381 10.494 13.739 13.739 0 0 1-6.443 8.397 13.74 13.74 0 0 1-10.494 1.382zm22.674 10.217l-7.167-12.413a16.247 16.247 0 0 0 3.844-6.936 16.22 16.22 0 0 0-1.631-12.39c-4.502-7.798-14.508-10.478-22.305-5.977-7.797 4.502-10.478 14.508-5.976 22.305a16.222 16.222 0 0 0 9.914 7.607c1.407.377 2.835.564 4.253.564 1.24 0 2.472-.143 3.677-.425l7.165 12.414a4.75 4.75 0 0 0 8.863-2.377c0-.83-.22-1.65-.637-2.372z"/></g><g><path fill="url(#igc9i)" d="M76.877 42.816c.882-2.84.672-5.882-.591-8.564a1.25 1.25 0 1 0-2.26 1.065 9.329 9.329 0 0 1 .465 6.758 9.333 9.333 0 0 1-4.26 5.33 9.301 9.301 0 0 1-7.104.935 9.301 9.301 0 0 1-5.685-4.362c-2.581-4.471-1.044-10.208 3.427-12.79a9.35 9.35 0 0 1 10.336.643 1.249 1.249 0 1 0 1.507-1.992 11.843 11.843 0 0 0-13.092-.814 11.784 11.784 0 0 0-5.527 7.202c-.82 3.06-.399 6.256 1.185 9a11.784 11.784 0 0 0 7.202 5.526 11.79 11.79 0 0 0 9-1.185 11.822 11.822 0 0 0 5.397-6.752z"/></g></g></g></svg>