<svg xmlns="http://www.w3.org/2000/svg" width="85" height="85" viewBox="0 0 85 85"><defs><linearGradient id="4adfa" x1="24.98" x2="69.26" y1="26.73" y2="84.32" gradientUnits="userSpaceOnUse"><stop offset="0" stop-color="#fc6681"/><stop offset="1" stop-color="#fb294f"/></linearGradient><linearGradient id="4adfb" x1="38.52" x2="52.8" y1="-7.43" y2="88.54" gradientUnits="userSpaceOnUse"><stop offset="0" stop-color="#fc6681"/><stop offset="1" stop-color="#fb294f"/></linearGradient><linearGradient id="4adfc" x1="20.84" x2="29.41" y1="-7.44" y2="88.53" gradientUnits="userSpaceOnUse"><stop offset="0" stop-color="#fc6681"/><stop offset="1" stop-color="#fb294f"/></linearGradient><linearGradient id="4adfd" x1="58.47" x2="61.33" y1="9.7" y2="76.84" gradientUnits="userSpaceOnUse"><stop offset="0" stop-color="#fc6681"/><stop offset="1" stop-color="#fb294f"/></linearGradient><linearGradient id="4adfe" x1="58.47" x2="61.33" y1="26.86" y2="46.08" gradientUnits="userSpaceOnUse"><stop offset="0" stop-color="#fc6681"/><stop offset="1" stop-color="#fb294f"/></linearGradient><linearGradient id="4adff" x1="19.71" x2="79.69" y1="-83.17" y2="166.37" gradientUnits="userSpaceOnUse"><stop offset="0" stop-color="#fc6681"/><stop offset="1" stop-color="#fb294f"/></linearGradient><linearGradient id="4adfg" x1="39.78" x2="52.63" y1="19.77" y2="38.99" gradientUnits="userSpaceOnUse"><stop offset="0" stop-color="#fc6681"/><stop offset="1" stop-color="#fb294f"/></linearGradient><linearGradient id="4adfh" x1="15.36" x2="86.78" y1="-143.25" y2="240.71" gradientUnits="userSpaceOnUse"><stop offset="0" stop-color="#fc6681"/><stop offset="1" stop-color="#fb294f"/></linearGradient><linearGradient id="4adfi" x1="9.93" x2="95.62" y1="-111.53" y2="138.01" gradientUnits="userSpaceOnUse"><stop offset="0" stop-color="#fc6681"/><stop offset="1" stop-color="#fb294f"/></linearGradient><linearGradient id="4adfj" x1="64.05" x2="78.33" y1="-34.38" y2="61.59" gradientUnits="userSpaceOnUse"><stop offset="0" stop-color="#fc6681"/><stop offset="1" stop-color="#fb294f"/></linearGradient><linearGradient id="4adfk" x1="14.75" x2="31.89" y1="-2.92" y2="16.3" gradientUnits="userSpaceOnUse"><stop offset="0" stop-color="#fc6681"/><stop offset="1" stop-color="#fb294f"/></linearGradient><linearGradient id="4adfl" x1="8.74" x2="23.02" y1="2.79" y2="21.94" gradientUnits="userSpaceOnUse"><stop offset="0" stop-color="#fc6681"/><stop offset="1" stop-color="#fb294f"/></linearGradient><linearGradient id="4adfm" x1="16" x2="31.71" y1="8.46" y2="27.61" gradientUnits="userSpaceOnUse"><stop offset="0" stop-color="#fc6681"/><stop offset="1" stop-color="#fb294f"/></linearGradient><linearGradient id="4adfn" x1="7.59" x2="11.87" y1="8.46" y2="27.61" gradientUnits="userSpaceOnUse"><stop offset="0" stop-color="#fc6681"/><stop offset="1" stop-color="#fb294f"/></linearGradient><linearGradient id="4adfo" x1="24.77" x2="30.48" y1="2.79" y2="21.94" gradientUnits="userSpaceOnUse"><stop offset="0" stop-color="#fc6681"/><stop offset="1" stop-color="#fb294f"/></linearGradient></defs><g><g><g><path fill="url(#4adfa)" d="M28.363 53.889a1.418 1.418 0 0 0-2.837 0v1.418h-4.254a1.418 1.418 0 0 0 0 2.836h4.254v1.418a1.418 1.418 0 0 0 2.837 0v-1.418h34.035a1.418 1.418 0 0 0 0-2.836H28.363z"/></g><g><path fill="url(#4adfb)" d="M39.708 39.166l6.756 3.378-6.756 3.377zm-2.164-3.502a1.42 1.42 0 0 0-.673 1.207v11.345a1.418 1.418 0 0 0 2.052 1.276l11.345-5.672a1.417 1.417 0 0 0 0-2.539L38.923 35.61c-.438-.222-.96-.2-1.38.055z"/></g><g><path fill="url(#4adfc)" d="M26.944 38.29a1.418 1.418 0 0 0 0-2.837 4.255 4.255 0 0 0-4.254 4.255v1.418h-1.418a1.418 1.418 0 0 0 0 2.836h1.418v4.254a1.418 1.418 0 0 0 2.836 0v-4.254h1.418a1.418 1.418 0 0 0 0-2.836h-1.418v-1.418c0-.784.635-1.419 1.418-1.419z"/></g><g><path fill="url(#4adfd)" d="M58.143 48.216a1.418 1.418 0 0 0 2.836 0v-7.09a1.418 1.418 0 0 0-2.836 0z"/></g><g><path fill="url(#4adfe)" d="M60.98 36.871a1.418 1.418 0 1 1-2.837 0 1.418 1.418 0 0 1 2.836 0z"/></g><g><path fill="url(#4adff)" d="M18.436 28.363H14.18c-.783 0-1.418.635-1.418 1.418v34.035c0 .783.635 1.418 1.418 1.418h56.725c.783 0 1.418-.635 1.418-1.418V35.453a1.418 1.418 0 0 0-2.836 0v26.945H15.6v-31.2h2.837a1.418 1.418 0 0 0 0-2.835z"/></g><g><path fill="url(#4adfg)" d="M49.634 31.199a1.418 1.418 0 0 0 0-2.836h-9.926a1.418 1.418 0 0 0 0 2.836z"/></g><g><path fill="url(#4adfh)" d="M51.053 76.579H34.035v-5.673h17.018zm25.526-42.544c-.783 0-1.418.635-1.418 1.418v31.199c0 .783-.635 1.418-1.418 1.418H11.345a1.418 1.418 0 0 1-1.418-1.418V29.781a1.418 1.418 0 0 0-2.836 0v36.871a4.255 4.255 0 0 0 4.254 4.254h19.854v5.673H22.69a4.255 4.255 0 0 0 0 8.509h39.708a1.418 1.418 0 0 0 0-2.837H22.69a1.418 1.418 0 0 1 0-2.836h39.708a1.418 1.418 0 0 0 0-2.836h-8.51v-5.673h19.855a4.255 4.255 0 0 0 4.254-4.254V35.453c0-.783-.635-1.418-1.418-1.418z"/></g><g><path fill="url(#4adfi)" d="M82.251 24.108a4.255 4.255 0 0 1-4.254 4.255H60.979a4.255 4.255 0 0 1-4.254-4.255V7.091a4.255 4.255 0 0 1 4.254-4.255h17.018a4.255 4.255 0 0 1 4.254 4.255zM34.035 22.69h-1.418c-.783 0-1.418.635-1.418 1.418v7.922l-8.924-8.924a1.418 1.418 0 0 0-1.003-.416H4.254a1.418 1.418 0 0 1-1.418-1.418V4.254c0-.783.635-1.418 1.418-1.418h31.2c.782 0 1.417.635 1.417 1.418v17.018c0 .783-.635 1.418-1.418 1.418zM77.997 0H60.979a7.099 7.099 0 0 0-7.09 7.09v15.6H39.446c.169-.454.257-.934.262-1.418V4.254A4.255 4.255 0 0 0 35.453 0H4.254A4.255 4.255 0 0 0 0 4.254v17.018a4.255 4.255 0 0 0 4.254 4.254h16.43l10.93 10.93a1.42 1.42 0 0 0 2.421-1.003v-9.927h19.996a7.103 7.103 0 0 0 6.948 5.673h17.018a7.099 7.099 0 0 0 7.09-7.09V7.09A7.099 7.099 0 0 0 77.998 0z"/></g><g><path fill="url(#4adfj)" d="M75.16 14.181c-.782 0-1.417.635-1.417 1.418a4.255 4.255 0 1 1-4.255-4.254 1.418 1.418 0 0 0 0-2.836 7.091 7.091 0 1 0 7.09 7.09c0-.783-.634-1.418-1.417-1.418z"/></g><g><path fill="url(#4adfk)" d="M28.363 5.673H14.18a1.418 1.418 0 0 0 0 2.836h14.182a1.418 1.418 0 0 0 0-2.836z"/></g><g><path fill="url(#4adfl)" d="M8.509 14.181h11.345a1.418 1.418 0 0 0 0-2.836H8.509a1.418 1.418 0 0 0 0 2.836z"/></g><g><path fill="url(#4adfm)" d="M28.363 17.018H15.599a1.418 1.418 0 0 0 0 2.836h12.764a1.418 1.418 0 0 0 0-2.836z"/></g><g><path fill="url(#4adfn)" d="M9.927 17.018H8.509a1.418 1.418 0 0 0 0 2.836h1.418a1.418 1.418 0 0 0 0-2.836z"/></g><g><path fill="url(#4adfo)" d="M28.363 11.345h-2.837a1.418 1.418 0 0 0 0 2.836h2.837a1.418 1.418 0 0 0 0-2.836z"/></g></g></g></svg>