<svg xmlns="http://www.w3.org/2000/svg" width="89" height="79" viewBox="0 0 89 79"><defs><linearGradient id="ivvca" x1="-32.94" x2="44.2" y1="-40.1" y2="79.09" gradientUnits="userSpaceOnUse"><stop offset="0" stop-color="#ffd037"/><stop offset="1" stop-color="#eab302"/><stop offset="1" stop-color="#e9b200"/></linearGradient><linearGradient id="ivvcb" x1="-10.27" x2="44.44" y1="-8.69" y2="42.67" gradientUnits="userSpaceOnUse"><stop offset="0" stop-color="#ffd037"/><stop offset="1" stop-color="#eab302"/><stop offset="1" stop-color="#e9b200"/></linearGradient></defs><g><g><g><g><g><path fill="url(#ivvca)" d="M84.601 48.555H3.802V12.433c0-7.718 5.989-8.555 8.555-8.555h63.689c2.566 0 8.555.837 8.555 8.555zm0 6.502c0 2.567-.836 8.555-8.555 8.555H12.357c-2.566 0-8.555-.836-8.555-8.555v-2.719h80.8zM39.734 75.285v-7.87h8.935v7.87zM76.046 0H12.357C6.387 0 0 3.25 0 12.357v42.7c0 9.107 6.388 12.358 12.357 12.358h23.575v7.87h-3.917a1.901 1.901 0 0 0 0 3.803H57.11a1.901 1.901 0 0 0 0-3.803h-4.638v-7.87h23.574c9.106 0 12.357-6.388 12.357-12.358v-42.7C88.403 3.251 82.016 0 76.046 0z"/></g></g></g><g><g><g><path fill="url(#ivvcb)" d="M75.022 8.973a1.901 1.901 0 0 0-2.662.378l-.002.003h.095L58.27 28.365l-6.654-8.65a1.9 1.9 0 0 0-1.444-.742 1.901 1.901 0 0 0-1.483.647L37.852 31.94l-7.947-13.575a1.902 1.902 0 0 0-1.616-.932 1.901 1.901 0 0 0-1.635.913L13.536 39.544a1.901 1.901 0 1 0 3.232 1.9l11.407-18.592L35.78 35.95a1.901 1.901 0 0 0 3.06.304l11.065-12.377 6.787 8.822c.389.44.936.706 1.521.741a1.901 1.901 0 0 0 1.502-.76L75.4 11.635c.63-.84.461-2.031-.378-2.662z"/></g></g></g></g></g></svg>