<svg xmlns="http://www.w3.org/2000/svg" width="588" height="471" viewBox="0 0 588 471"><g><g><g><path fill="none" stroke="#535461" stroke-miterlimit="20" stroke-width="2" d="M71.69 291.638v0s-32.85-64.368-18.432-118.97c6.05-22.948 4.943-47.167-3.963-69.136a184.15 184.15 0 0 0-15.51-29.861"/></g><g><path fill="#6c63ff" d="M42.668 39.175c1.567 8.35-9.006 35.397-9.006 35.397S14.005 53.196 12.438 44.85c-1.341-8.24 4.137-16.046 12.342-17.587 8.206-1.541 16.143 3.746 17.883 11.912z"/></g><g><path fill="#6c63ff" d="M76.336 80.734c-3.224 7.836-26.8 24.818-26.8 24.818s-4.886-28.624-1.68-36.488c3.223-7.86 12.207-11.619 20.067-8.396 7.86 3.223 11.619 12.207 8.396 20.066z"/></g><g><path fill="#6c63ff" d="M90.094 159.963c-6.75 5.16-35.66 7.892-35.66 7.892s10.231-27.18 16.982-32.335c6.75-5.158 16.402-3.867 21.56 2.882 5.158 6.75 3.867 16.403-2.882 21.56z"/></g><g><path fill="#6c63ff" d="M86.97 222.254c-5.782 6.225-33.818 13.803-33.818 13.803s5.49-28.518 11.273-34.742c5.78-6.225 15.512-6.584 21.737-.803 6.224 5.78 6.584 15.513.803 21.737z"/></g><g><path fill="#6c63ff" d="M18.096 113.12c7.08 4.696 36.108 5.485 36.108 5.485S42.17 92.175 35.09 87.479c-7.08-4.694-16.626-2.76-21.32 4.32-4.694 7.081-2.76 16.627 4.32 21.32z"/></g><g><path fill="#6c63ff" d="M15.393 186.018c8.16 2.362 36.096-5.597 36.096-5.597s-19.388-21.617-27.55-23.979c-8.159-2.362-16.688 2.34-19.048 10.5-2.36 8.16 2.341 16.69 10.501 19.05z"/></g><g><path fill="#6c63ff" d="M22.485 257.226c7.645 3.705 36.516.61 36.516.61s-15.46-24.583-23.1-28.288c-7.643-3.71-16.846-.521-20.556 7.122-3.71 7.643-.52 16.846 7.123 20.556z"/></g><g><path fill="#fc6681" d="M42.668 39.175c1.567 8.35-9.006 35.397-9.006 35.397S14.005 53.196 12.438 44.85c-1.341-8.24 4.137-16.046 12.342-17.587 8.206-1.541 16.143 3.746 17.883 11.912z"/></g><g><path fill="#fc6681" d="M76.336 80.734c-3.224 7.836-26.8 24.818-26.8 24.818s-4.886-28.624-1.68-36.488c3.223-7.86 12.207-11.619 20.067-8.396 7.86 3.223 11.619 12.207 8.396 20.066z"/></g><g><path fill="#fc6681" d="M90.094 159.963c-6.75 5.16-35.66 7.892-35.66 7.892s10.231-27.18 16.982-32.335c6.75-5.158 16.402-3.867 21.56 2.882 5.158 6.75 3.867 16.403-2.882 21.56z"/></g><g><path fill="#fc6681" d="M86.97 222.254c-5.782 6.225-33.818 13.803-33.818 13.803s5.49-28.518 11.273-34.742c5.78-6.225 15.512-6.584 21.737-.803 6.224 5.78 6.584 15.513.803 21.737z"/></g><g><path fill="#fc6681" d="M18.096 113.12c7.08 4.696 36.108 5.485 36.108 5.485S42.17 92.175 35.09 87.479c-7.08-4.694-16.626-2.76-21.32 4.32-4.694 7.081-2.76 16.627 4.32 21.32z"/></g><g><path fill="#fc6681" d="M15.393 186.018c8.16 2.362 36.096-5.597 36.096-5.597s-19.388-21.617-27.55-23.979c-8.159-2.362-16.688 2.34-19.048 10.5-2.36 8.16 2.341 16.69 10.501 19.05z"/></g><g><path fill="#fc6681" d="M22.485 257.226c7.645 3.705 36.516.61 36.516.61s-15.46-24.583-23.1-28.288c-7.643-3.71-16.846-.521-20.556 7.122-3.71 7.643-.52 16.846 7.123 20.556z"/></g><g><path fill="none" stroke="#535461" stroke-miterlimit="20" stroke-width="2" d="M507.613 171.667v0s41.694-65.533 46.731-93.519c5.038-27.986 14.553-53.733 14.553-53.733v0"/></g><g><path fill="#fe7ebb" d="M578.412 80.387l-26.307 2.24"/></g><g><path fill="#fe7ebb" d="M532.515 65.834l20.833 16.686"/></g><g><path fill="#fe7ebb" d="M581.77 57.439l-23.687 3.173"/></g><g><path fill="#fe7ebb" d="M542.59 49.043l15.639 10.976"/></g><g><path fill="#fe7ebb" d="M564.033 39.074s19.417-5.144 22.215-4.024c2.799 1.12 1.12 13.433-6.716 13.993-7.836.56-15.499-9.969-15.499-9.969z"/></g><g><path fill="#fe7ebb" d="M550.986 24.415s12.314 11.754 12.873 14.553c.56 2.798-10.074 9.515-15.672 0-5.597-9.516 2.799-14.553 2.799-14.553z"/></g><g><path fill="#ffd037" d="M568.332 25.534a5.597 5.597 0 1 1 11.194 0 5.597 5.597 0 0 1-11.194 0z"/></g><g><path fill="#ffd037" d="M558.257 22.736a5.597 5.597 0 1 1 11.194 0 5.597 5.597 0 0 1-11.194 0z"/></g><g><path fill="#c2beff" d="M122.899 60.797c-2.877 3.493-3.985 8.396-5.228 13.025-9.985 37.216-34.58 67.166-62.594 88.537-11.86 9.056-26.307 21.207-23.71 37.44 1.394 8.72 7.529 15.112 12.096 22.243 9.56 14.872 12.655 35.094 8.1 52.894-5.184 20.256-19.658 39.18-15.175 59.644 2.765 12.627 12.146 21.582 21.169 29.295a576.95 576.95 0 0 0 43.563 33.79c10.036 7.042 20.71 13.893 32.402 14.783 10.3.79 20.386-3.123 30.158-6.99 8.542-3.36 17.301-6.891 24.197-13.658 4.478-4.416 8.094-10.12 13.092-13.73 11.754-8.491 26.833-3.107 40.3.51a140.333 140.333 0 0 0 96.048-8.794c46.396-21.83 81.76-67.586 127.125-92.153 19.512-10.567 40.736-17.122 58.804-30.728a109.847 109.847 0 0 0 25.848-27.987c13.68-21.073 21.051-47.94 18.93-74.236-2.122-26.295-14.088-51.645-32.856-66.489-20.094-15.89-45.472-18.857-68.342-28.4-23.615-9.857-44.615-26.8-68-37.367a139.052 139.052 0 0 0-119.938 2.709c-25.45 12.845-51.243 42.88-79.593 45.136-20.206 1.645-60.623-18.589-76.396.526z"/></g><g opacity=".2"><path d="M349.603 202.311v1.12c0 11.525-8.77 24.807-24.807 24.807a24.628 24.628 0 0 1-13.388-3.918c.699.076 1.401.112 2.104.106 3.924.01 7.738-1.3 10.825-3.722a8.732 8.732 0 0 1-8.116-6.028c.545.086 1.095.13 1.646.134a9.221 9.221 0 0 0 2.295-.297 8.72 8.72 0 0 1-6.991-8.558v-.106a8.782 8.782 0 0 0 3.918 1.12 8.732 8.732 0 0 1-2.698-11.66 24.784 24.784 0 0 0 17.978 9.124 9.836 9.836 0 0 1-.218-1.998 8.726 8.726 0 0 1 15.113-5.967 17.168 17.168 0 0 0 5.535-2.105 8.693 8.693 0 0 1-3.834 4.803 17.48 17.48 0 0 0 5.038-1.35 18.737 18.737 0 0 1-4.372 4.507z"/></g><g><path fill="#ffd5d8" d="M281.451 208.793c-18.235 53.325-16.164 71.309-16.164 71.309l3.918 30.225s-78.921 11.194-66.607-25.747c7.058-21.18 5.474-55.245 2.832-80.45-1.965-18.761-4.511-32.614-4.511-32.614l90.675 9.515c-3.918 10.181-7.277 19.4-10.143 27.762z"/></g><g opacity=".1"><path d="M291.594 181.03a840.933 840.933 0 0 0-10.165 27.763c-23.188 16.822-55.041 14.868-76-4.662-1.964-18.762-4.51-32.615-4.51-32.615z"/></g><g><path fill="#ffd5d8" d="M186.388 159.202c0-33.077 26.814-59.89 59.89-59.89 33.077 0 59.89 26.813 59.89 59.89 0 33.076-26.813 59.89-59.89 59.89-33.076 0-59.89-26.814-59.89-59.89z"/></g><g><path fill="#ffd5d8" d="M286.556 313.685l-35.262-15.112 6.157-47.017a76.124 76.124 0 0 1 15.151 3.358c13.58 4.4 31.904 14.335 35.76 36.287a.778.778 0 0 1 0 .112c6.18 35.805-21.806 22.372-21.806 22.372z"/></g><g opacity=".05"><path d="M308.385 291.184l-4.735 7.109-18.963 1.265v-12.745s-4.545-14.827-4.545-15.947c0-1.12-7.579-14.413-7.579-14.413l-3.056-2.378 3.118.822c13.579 4.4 31.932 14.335 35.76 36.287z"/></g><g><path fill="#6c63ff" d="M269.507 254.075l10.915 20.43v25.187l15.112 3.918-9.515-26.307s-10.915-20.99-16.512-23.228z"/></g><g><path fill="#6c63ff" d="M170.694 470.407c-.24-6.13.477-12.26 2.126-18.168 7.143-26.246-4.925-111.665-4.925-111.665s3.358-72.764 48.136-85.078c42.757-11.754 72.764 36.701 75.372 41.1.13.208.19.32.19.32l17.8-7.786.112-.05v.28c.14 3.98 3.201 11.826 7.438 20.9a265.305 265.305 0 0 1 16.725 46.876 271.2 271.2 0 0 1 8.066 54.014c1.74 35.738 9.19 59.257 9.19 59.257z"/></g><g opacity=".1"><path d="M333.696 357.114l2.418 16.182-44.778-76.682.09-.04 17.821-7.797.168.33.118.23c.14 3.98 3.201 11.827 7.438 20.9a265.309 265.309 0 0 1 16.725 46.877z"/></g><g opacity=".1"><path d="M218.6 76.335c-23.598-2.665-48.567 3.123-66.937 18.174-18.37 15.05-29.106 39.807-24.98 63.193 3.453 19.456 16.495 38.122 11.843 57.32-4.416 18.237-22.892 28.86-39.617 37.362l-58.43 29.7c-6.307 3.206-13.12 6.95-15.672 13.539-2.664 6.834.135 14.553 3.885 20.872 3.75 6.32 8.536 12.207 10.288 19.333 2.239 9.084-.93 18.728-5.816 26.698-4.886 7.97-11.452 14.777-16.976 22.322-7.685 10.467-13.411 22.708-14.262 35.649-.85 12.94 3.784 26.598 13.803 34.831 9.196 7.557 21.627 9.801 33.522 10.389 23.855 1.175 47.576-3.224 71.084-7.601l22.596-4.215c20.805-3.879 43.356-8.748 56.89-25.025 15.673-18.818 13.865-46.166 10.786-70.447-3.078-24.28-6-51.214 8.223-71.152 9.297-13.058 24.863-21.157 32.257-35.38 13.534-26.01-6.157-58.049.195-86.667 1.803-8.105 5.654-15.6 8.055-23.548 4.27-14.144 4.724-34.535-2.597-48.001-6.734-12.342-25.445-15.919-38.14-17.346z"/></g><g><path fill="#6c63ff" d="M217.48 76.335c-23.597-2.665-48.566 3.123-66.936 18.174-18.37 15.05-29.106 39.807-24.98 63.193 3.453 19.456 16.494 38.122 11.843 57.32-4.416 18.237-22.893 28.86-39.617 37.362l-58.43 29.7c-6.308 3.206-13.12 6.95-15.672 13.539-2.664 6.834.134 14.553 3.885 20.872 3.75 6.32 8.535 12.207 10.287 19.333 2.24 9.084-.929 18.728-5.815 26.698-4.887 7.97-11.452 14.777-16.977 22.322-7.685 10.467-13.41 22.708-14.261 35.649-.851 12.94 3.783 26.598 13.802 34.831 9.197 7.557 21.628 9.801 33.522 10.389 23.855 1.175 47.577-3.224 71.085-7.601l22.596-4.215c20.805-3.879 43.356-8.748 56.89-25.025 15.672-18.818 13.864-46.166 10.786-70.447-3.079-24.28-6-51.214 8.222-71.152 9.297-13.058 24.863-21.157 32.257-35.38 13.534-26.01-6.157-58.049.196-86.667 1.802-8.105 5.653-15.6 8.054-23.548 4.271-14.144 4.724-34.535-2.597-48.001-6.733-12.342-25.445-15.919-38.14-17.346z"/></g><g opacity=".1"><path d="M217.48 76.335c-23.597-2.665-48.566 3.123-66.936 18.174-18.37 15.05-29.106 39.807-24.98 63.193 3.453 19.456 16.494 38.122 11.843 57.32-4.416 18.237-22.893 28.86-39.617 37.362l-58.43 29.7c-6.308 3.206-13.12 6.95-15.672 13.539-2.664 6.834.134 14.553 3.885 20.872 3.75 6.32 8.535 12.207 10.287 19.333 2.24 9.084-.929 18.728-5.815 26.698-4.887 7.97-11.452 14.777-16.977 22.322-7.685 10.467-13.41 22.708-14.261 35.649-.851 12.94 3.783 26.598 13.802 34.831 9.197 7.557 21.628 9.801 33.522 10.389 23.855 1.175 47.577-3.224 71.085-7.601l22.596-4.215c20.805-3.879 43.356-8.748 56.89-25.025 15.672-18.818 13.864-46.166 10.786-70.447-3.079-24.28-6-51.214 8.222-71.152 9.297-13.058 24.863-21.157 32.257-35.38 13.534-26.01-6.157-58.049.196-86.667 1.802-8.105 5.653-15.6 8.054-23.548 4.271-14.144 4.724-34.535-2.597-48.001-6.733-12.342-25.445-15.919-38.14-17.346z"/></g><g><path fill="#6c63ff" d="M269.507 254.075l41.98 77.068 29.105-14.94s-52.054-70.524-58.771-69.405c-6.717 1.12-12.314 7.277-12.314 7.277z"/></g><g><path fill="#ffd5d8" d="M347.006 308.088l-9.515-27.986s-6.717-68.846-33.024-71.085c-26.307-2.239 6.717 73.324 6.717 73.324s11.754 21.829 7.276 38.06c-4.477 16.233 28.546-12.313 28.546-12.313z"/></g><g opacity=".1"><path d="M212.723 360.511l65.437 79.112s62.69 44.777 80.04 11.754c0 0 7.277-90.116-1.119-111.385-8.396-21.27-11.194-34.703-11.194-34.703s-34.703 13.434-36.942 3.918l.84 90.955s-39.46-145.248-77.522-127.337c-.53.25-1.052.502-1.567.756-32.576 16.198-41.185 58.877-17.973 86.93z"/></g><g><path fill="#6c63ff" d="M214.962 358.832l65.437 79.111s62.69 44.778 80.04 11.755c0 0 5.038-90.116-3.358-111.385-8.396-21.27-8.955-34.703-8.955-34.703s-34.703 13.433-36.942 3.918l1.4 112.784s-40.021-167.077-78.082-149.166c-.53.25-1.052.502-1.567.756-32.576 16.198-41.185 58.877-17.973 86.93z"/></g><g><path fill="#fff" d="M376.414 58.731a4.478 4.478 0 1 1 8.955 0 4.478 4.478 0 0 1-8.955 0z"/></g><g><path fill="#fff" d="M364.1 120.86a2.239 2.239 0 1 1 4.478 0 2.239 2.239 0 0 1-4.478 0z"/></g><g><path fill="#fff" d="M280.142 58.732a2.239 2.239 0 1 1 4.477 0 2.239 2.239 0 0 1-4.477 0z"/></g><g><path fill="#fff" d="M94.012 149.793a2.239 2.239 0 1 1 4.477 0 2.239 2.239 0 0 1-4.477 0z"/></g><g><path fill="#fff" d="M223.61 311.726a2.239 2.239 0 1 1 4.478 0 2.239 2.239 0 0 1-4.478 0z"/></g><g><path fill="#fff" d="M71.925 208.737a2.239 2.239 0 1 1 4.478 0 2.239 2.239 0 0 1-4.478 0z"/></g><g><path fill="#fff" d="M460.932 75.523a2.239 2.239 0 1 1 4.478 0 2.239 2.239 0 0 1-4.478 0z"/></g><g><path fill="#fff" d="M333.875 166.198a2.239 2.239 0 1 1 4.478 0 2.239 2.239 0 0 1-4.478 0z"/></g><g><path fill="#fff" d="M525.3 137.093a2.239 2.239 0 1 1 4.478 0 2.239 2.239 0 0 1-4.478 0z"/></g><g><path fill="#fff" d="M378.91 303.716a2.239 2.239 0 1 1 4.478 0 2.239 2.239 0 0 1-4.478 0z"/></g><g><path fill="#fff" d="M463.17 142.024h-4.65v-4.651h-.778v4.65h-4.646v.779h4.646v4.646h.778v-4.646h4.65z"/></g><g><path fill="#fff" d="M230.326 419.864h-2.065v-2.07h-.347v2.07h-2.065v.342h2.065v2.065h.347v-2.065h2.065z"/></g><g><path fill="#fff" d="M322.68 356.616h-2.07v-2.071h-.342v2.07h-2.065v.342h2.065v2.066h.342v-2.066h2.07z"/></g><g><path fill="#fff" d="M460.372 227.88h-2.07v-2.071h-.342v2.07h-2.065v.342h2.065v2.065h.341v-2.065h2.071z"/></g><g><path fill="#fff" d="M366.339 260.344h-2.071v-2.071h-.341v2.07h-2.066v.342h2.066v2.065h.341v-2.065h2.071z"/></g><g><path fill="#fff" d="M100.47 225.64H98.4v-2.07h-.342v2.07h-2.065v.342h2.065v2.066h.342v-2.066h2.07z"/></g><g><path fill="#fff" d="M324.92 94.106h-2.071v-2.071h-.342v2.071h-2.065v.341h2.065v2.066h.342v-2.066h2.07z"/></g><g><path fill="#fff" d="M144.13 74.516h-2.066v-2.071h-.347v2.07h-2.066v.342h2.066v2.065h.347v-2.065h2.065z"/></g><g opacity=".2"><path d="M412.393 92.595v12.537h4.299V92.595zm11.474 0v12.537h4.299V92.595zm11.497 14.704l-7.198 7.175h-11.474l-6.09 6.09v-6.09h-9.683V84.35h34.423zM396.995 80.05l-3.23 8.245v33.707h11.452v6.09h6.454l6.09-6.09h9.33l12.55-12.55V80.052z"/></g><g opacity=".2"><path d="M508.643 200.974l-9.185-3.818 5.994-14.424c1.428-3.436 3.19-7.875-1.522-9.834-4.713-1.959-7.07 1.444-8.676 5.306l-6.112 14.687-9.196-3.823 12.314-29.637 8.827 3.666-1.68 4.042.13.055c2.193-1.819 6.218-3.028 10.695-1.164 9.314 3.868 8.48 10.713 5.172 18.684l-6.767 16.277zm-25.065-49.91a5.799 5.799 0 1 1 7.568-3.163 5.821 5.821 0 0 1-7.568 3.162zm-9.397 35.592l-9.208-3.84 12.314-29.637 9.208 3.823z"/></g><g opacity=".2"><path d="M327.679 51.282c.929-2.329.716-7.892.716-10.49 0-2.597.219-8.177-.716-10.528a6.028 6.028 0 0 0-3.392-3.392c-2.345-.923-7.931-.716-10.528-.716-2.598 0-8.178-.219-10.529.716a6.028 6.028 0 0 0-3.392 3.392c-.923 2.345-.716 7.931-.716 10.528 0 2.598-.218 8.178.716 10.529a6.028 6.028 0 0 0 3.392 3.392c2.345.923 7.931.716 10.529.716 2.597 0 8.177.218 10.528-.716a6.028 6.028 0 0 0 3.392-3.392zm3.806-17.872c.168 2.972.168 11.776 0 14.726-.14 2.86-.795 5.39-2.883 7.483-2.087 2.094-4.623 2.749-7.483 2.883-2.944.168-11.782.168-14.732 0-2.86-.14-5.39-.795-7.483-2.883-2.094-2.087-2.749-4.623-2.883-7.483-.168-2.944-.168-11.782 0-14.732.14-2.86.784-5.396 2.883-7.483 2.099-2.088 4.628-2.743 7.483-2.877 2.944-.168 11.782-.168 14.732 0 2.86.14 5.39.794 7.483 2.882 2.094 2.088 2.749 4.623 2.883 7.484zm-6.062-2.166a2.138 2.138 0 1 1 0-.006zm-5.715 9.532a5.95 5.95 0 1 0-5.95 5.95 5.961 5.961 0 0 0 5.95-5.95zm-5.95-9.163a9.14 9.14 0 0 1 9.18 9.151 9.157 9.157 0 1 1-9.18-9.151z"/></g><g opacity=".2"><path d="M435.185 237.67v32.86a2.037 2.037 0 0 1-2.038 2.038h-9.414v-14.33h4.797l.716-5.596h-5.524v-3.56c0-1.618.448-2.715 2.765-2.715h2.95v-4.987a39.693 39.693 0 0 0-4.305-.224c-4.254 0-7.175 2.597-7.175 7.372v4.114h-4.814v5.597h4.814v14.307H400.28a2.043 2.043 0 0 1-2.038-2.038V237.67a2.043 2.043 0 0 1 2.038-2.037h32.86c1.127 0 2.04.911 2.044 2.037z"/></g><g opacity=".2"><path d="M496.66 104.702l3.251-13.507 10.249 9.61-13.495 3.919zM527.342 93.3a5.871 5.871 0 0 0-3.045-5.01c-3.313-1.807-17.513-5.227-17.513-5.227s-14.206-3.42-17.979-3.32a5.872 5.872 0 0 0-4.987 3.073c-1.808 3.359-3.599 10.775-3.599 10.775s-1.791 7.439-1.679 11.234a5.782 5.782 0 0 0 3.056 4.942c3.314 1.808 17.514 5.228 17.514 5.228s14.206 3.42 17.978 3.319a5.782 5.782 0 0 0 4.976-3.011c1.808-3.359 3.599-10.775 3.599-10.775s1.774-7.433 1.68-11.228z"/></g></g></g></svg>