<svg xmlns="http://www.w3.org/2000/svg" width="599" height="440" viewBox="0 0 599 440"><defs><linearGradient id="xojka" x1="353.41" x2="353.41" y1="436.39" y2="272.34" gradientUnits="userSpaceOnUse"><stop offset="0" stop-color="gray" stop-opacity=".25"/><stop offset=".54" stop-color="gray" stop-opacity=".12"/><stop offset="1" stop-color="gray" stop-opacity=".1"/></linearGradient></defs><g><g><g opacity=".1"><path fill="#6c63ff" d="M350.21 60.787c-35.314-1.228-68.948-12.626-101.065-25.1-32.117-12.474-63.929-26.295-98.42-32.903-22.147-4.25-47.504-4.85-65.369 7.028C68.168 21.271 62.614 40.996 59.63 59.314c-2.248 13.788-3.569 28.292 2.586 41.197 4.278 8.96 11.863 16.49 17.112 25.1 18.263 29.858 5.353 66.678-14.433 95.833-9.276 13.674-20.052 26.737-27.217 41.284-7.164 14.547-10.476 31.238-4.207 46.085 6.21 14.733 21.013 25.777 37.05 33.558 32.57 15.791 70.935 20.315 108.372 22.874 82.847 5.67 166.13 3.214 249.194.758 30.742-.911 61.615-1.833 91.855-6.586 16.796-2.64 34.131-6.831 46.32-16.915 15.48-12.84 19.317-34.583 8.944-50.68-17.395-27.005-65.478-33.716-77.652-62.696-6.69-15.95.18-33.721 9.91-48.514 20.865-31.74 55.836-59.58 57.675-95.86 1.266-24.914-15.546-49.867-41.54-61.659-27.245-12.359-65.032-10.803-85.123 9.653-20.707 21.019-57.08 29.121-88.264 28.041z"/></g><g opacity=".9"><g opacity=".9"><path fill="#3a3768" d="M388.502 175.592a2 2 0 0 1-2-2V137.75a2 2 0 0 1 2-2h.835a2 2 0 0 1 2 2v35.843a2 2 0 0 1-2 2z"/></g><g opacity=".9"><path fill="#3a3768" d="M226.84 117.655a1 1 0 0 1-1-1v-11.118a1 1 0 0 1 1-1h.712a1 1 0 0 1 1 1v11.118a1 1 0 0 1-1 1z"/></g><g opacity=".9"><path fill="#3a3768" d="M226.742 151.382a1 1 0 0 1-1-1v-20.83a1 1 0 0 1 1-1h1.056a1 1 0 0 1 1 1v20.83a1 1 0 0 1-1 1z"/></g><g opacity=".9"><path fill="#3a3768" d="M226.791 182.397a1 1 0 0 1-1-1V160.37a1 1 0 0 1 1-1h.908a1 1 0 0 1 1 1v21.027a1 1 0 0 1-1 1z"/></g><g opacity=".9"><path fill="#3a3768" d="M247.379 389.886c-11.046 0-20-8.954-20-20V81.191c0-11.046 8.954-20 20-20H369.11c11.046 0 20 8.954 20 20v288.695c0 11.046-8.954 20-20 20z"/></g><g opacity=".9"><path fill="#e6e8ec" d="M294.639 75.585a2 2 0 0 1-2-2v-.583a2 2 0 0 1 2-2h18.584a2 2 0 0 1 2 2v.583a2 2 0 0 1-2 2z"/></g><g opacity=".9"><path fill="#e6e8ec" d="M318.64 73.299a2.603 2.603 0 1 1 5.205 0 2.603 2.603 0 0 1-5.206 0z"/></g></g><g opacity=".1"><path fill="#6c63ff" d="M20.773 397.45c0-6.142 48.852-11.121 109.114-11.121 60.262 0 109.114 4.979 109.114 11.12 0 6.142-48.852 11.12-109.114 11.12-60.262 0-109.114-4.978-109.114-11.12z"/></g><g opacity=".1"><path fill="#6c63ff" d="M321.39 434.57c0-2.878 22.885-5.211 51.116-5.211 28.231 0 51.117 2.333 51.117 5.211s-22.886 5.21-51.117 5.21c-28.23 0-51.117-2.332-51.117-5.21z"/></g><g opacity=".1"><path fill="#6c63ff" d="M496.053 408.313c0-2.878 22.885-5.21 51.116-5.21 28.231 0 51.117 2.332 51.117 5.21s-22.886 5.211-51.117 5.211c-28.23 0-51.116-2.333-51.116-5.21z"/></g><g><path fill="#6c63ff" d="M366.258 69.747h-18.497v2.231c0 5.84-4.735 10.575-10.575 10.575h-59.029c-5.84 0-10.574-4.734-10.574-10.575v-2.231h-17.374c-7.093 0-12.842 5.751-12.84 12.844v285.884c-.002 7.093 5.747 12.845 12.84 12.845h116.05c7.093 0 12.844-5.751 12.844-12.845V82.591c0-7.094-5.75-12.844-12.845-12.844z"/></g><g><path fill="#6c63ff" d="M445.1 46.77s-45.944-2.773-40.526 29.42c0 0-1.091 5.692 4.082 8.273 0 0 .081-2.385 4.709-1.577 1.648.279 3.324.36 4.992.24 2.255-.15 4.4-1.034 6.106-2.515 0 0 12.91-5.337 17.936-26.443 0 0 3.716-4.605 3.568-5.79l-7.753 3.313s2.646 5.593.545 10.242c0 0-.25-10.04-1.74-9.822-.306.044-4.033 1.937-4.033 1.937s4.562 9.74 1.091 16.823c0 0 1.305-12.005-2.542-16.119l-5.457 3.187s5.326 10.062 1.72 18.274c0 0 .921-12.594-2.866-17.5l-4.943 3.858s5.003 9.915 1.953 16.725c0 0-.403-14.657-3.028-15.764 0 0-4.327 3.82-4.987 5.38 0 0 3.426 7.202 1.304 11 0 0-1.304-9.767-2.374-9.822 0 0-4.31 6.472-4.758 10.914 0 0 .185-6.597 3.71-11.525 0 0-4.163.715-6.597 3.416 0 0 .672-4.572 7.64-4.976 0 0 3.563-4.911 4.518-5.206 0 0-6.957-.584-11.175 1.288 0 0 3.71-4.316 12.452-2.352l4.878-3.988s-9.156-1.25-13.042.13c0 0 4.475-3.82 14.362-1.036l5.315-3.176s-7.809-1.686-12.463-1.091c0 0 4.911-2.647 14.018.223l3.82-1.707s-5.725-1.125-7.4-1.305c-1.675-.18-1.762-.638-1.762-.638 3.651-.607 7.4-.18 10.82 1.233 0 0 8.043-3.017 7.907-3.525z"/></g><g><path fill="#6c63ff" d="M397.977 32.451s-20.735-1.25-18.312 13.298c0 0-.486 2.57 1.844 3.738 0 0 .038-1.092 2.128-.715.745.125 1.501.162 2.254.109a4.703 4.703 0 0 0 2.76-1.135s5.834-2.412 8.104-11.95c0 0 1.68-2.079 1.637-2.613l-3.503 1.495s1.195 2.526.25 4.627c0 0-.108-4.535-.785-4.43-.136 0-1.817.878-1.817.878s2.057 4.398.502 7.6c0 0 .59-5.423-1.146-7.284l-2.466 1.44s2.406 4.546.775 8.256c0 0 .42-5.69-1.294-7.906l-2.237 1.746s2.265 4.48.884 7.557c0 0-.18-6.624-1.364-7.126 0 0-1.959 1.724-2.253 2.434 0 0 1.544 3.273.583 4.97 0 0-.589-4.414-1.09-4.436 0 0-1.949 2.925-2.151 4.911a10.619 10.619 0 0 1 1.675-5.205 5.843 5.843 0 0 0-2.979 1.544s.3-2.068 3.46-2.248c0 0 1.61-2.221 2.04-2.357 0 0-3.143-.262-5.047.583 0 0 1.675-1.948 5.626-1.091l2.182-1.8s-4.136-.546-5.893.06c0 0 2.025-1.725 6.488-.47l2.4-1.435s-3.524-.758-5.625-.486c0 0 2.216-1.195 6.33.099l1.719-.77s-2.581-.507-3.34-.589c-.758-.082-.796-.29-.796-.29a8.927 8.927 0 0 1 4.85.546s3.667-1.325 3.607-1.555z"/></g><g><path fill="#6c63ff" d="M0 370.265c0-2.05 9.823-3.71 21.94-3.71 12.118 0 21.941 1.66 21.941 3.71 0 2.049-9.823 3.71-21.94 3.71-12.118 0-21.941-1.661-21.941-3.71z"/></g><g><path fill="#6c63ff" d="M31.01 364.192a6.347 6.347 0 0 0 2.095-3.154c.267-1.255-.268-2.729-1.463-3.214-1.342-.519-2.777.414-3.863 1.353-1.086.939-2.335 2.014-3.76 1.812a5.713 5.713 0 0 0 1.752-5.353 2.182 2.182 0 0 0-.49-1.091c-.743-.797-2.096-.453-2.991.174-2.837 1.997-3.629 5.85-3.64 9.32-.289-1.255-.049-2.56-.054-3.82-.006-1.26-.36-2.728-1.44-3.394a4.364 4.364 0 0 0-2.183-.518c-1.277-.044-2.696.082-3.569 1.015-1.091 1.157-.802 3.105.142 4.365.944 1.26 2.374 2.074 3.689 2.958a8.14 8.14 0 0 1 2.64 2.515c.081.142.147.292.197.447h7.994a22.25 22.25 0 0 0 4.943-3.415z"/></g><g><path fill="#6c63ff" d="M453.203 318.4s4.72 6.177-2.183 15.497c-6.902 9.32-12.588 17.188-10.286 23 0 0 10.411-17.309 18.885-17.554 8.474-.246 2.903-10.531-6.416-20.942z"/></g><g opacity=".1"><path d="M453.203 318.4c.41.598.735 1.25.965 1.938 8.267 9.712 12.67 18.78 4.72 19.005-7.399.212-16.282 13.45-18.405 16.79.068.26.152.514.251.763 0 0 10.411-17.308 18.885-17.553 8.474-.246 2.903-10.531-6.416-20.943z"/></g><g><path fill="#ffd037" d="M461.977 326.29c0 2.183-.246 3.935-.546 3.935-.3 0-.546-1.763-.546-3.934 0-2.172.306-1.146.606-1.146s.486-1.037.486 1.146z"/></g><g><path fill="#ffd037" d="M464.989 328.866c-1.91 1.037-3.569 1.67-3.716 1.402-.147-.267 1.288-1.32 3.197-2.362 1.91-1.042 1.152-.279 1.3 0 .146.278 1.129-.082-.781.96z"/></g><g><path fill="#6c63ff" d="M428.266 318.4s-4.72 6.177 2.183 15.497c6.902 9.32 12.588 17.188 10.291 23 0 0-10.411-17.309-18.885-17.554-8.474-.246-2.908-10.531 6.411-20.942z"/></g><g opacity=".1"><path d="M428.266 318.4a7.566 7.566 0 0 0-.966 1.937c-8.266 9.713-12.67 18.782-4.725 19.006 7.405.212 16.283 13.45 18.41 16.79-.07.258-.153.513-.25.763 0 0-10.411-17.308-18.886-17.553-8.474-.246-2.902-10.531 6.417-20.942z"/></g><g><path fill="#ffd037" d="M419.487 326.29c0 2.183.245 3.935.546 3.935.3 0 .545-1.763.545-3.934 0-2.172-.305-1.146-.606-1.146-.3 0-.485-1.037-.485 1.146z"/></g><g><path fill="#ffd037" d="M416.458 328.866c1.905 1.037 3.569 1.67 3.71 1.402.143-.267-1.281-1.32-3.191-2.362s-1.157-.279-1.299 0c-.142.278-1.108-.082.78.96z"/></g><g><path fill="#a8a8a8" d="M420.993 356.089s13.2-.41 17.177-3.241c3.978-2.832 20.304-6.215 21.28-1.67.977 4.545 19.835 22.595 4.911 22.715-14.923.12-34.627-2.324-38.594-4.741-3.967-2.418-4.774-13.063-4.774-13.063z"/></g><g opacity=".2"><path d="M464.661 372.311c-14.902.12-34.627-2.324-38.594-4.742-3.028-1.838-4.228-8.446-4.632-11.497h-.442s.835 10.646 4.807 13.063c3.972 2.418 23.692 4.862 38.594 4.742 4.3-.038 5.79-1.566 5.707-3.82-.6 1.37-2.237 2.227-5.44 2.254z"/></g><g opacity=".3"><path fill="#3a3768" d="M318.95 308.786V266.21h42.578v42.577z"/></g><g opacity=".3"><path fill="#3a3768" d="M256.2 252.584v-42.577h42.577v42.577z"/></g><g opacity=".3"><path fill="#3a3768" d="M260.293 364.028v-42.577h42.577v42.577z"/></g><g><path fill="#fff" d="M250.793 148.042v-42.577h42.577v42.577z"/></g><g><path fill="#fff" d="M349.984 311l-28.566-31.57 31.571-28.568 28.567 31.572z"/></g><g><path fill="#fff" d="M318.246 199.35v-42.577h42.578v42.577z"/></g><g><path fill="#fff" d="M264.423 246.822v-42.577H307v42.577z"/></g><g><path fill="#6c63ff" d="M530.287 399.741c2.477.322 5.047.546 7.42-.251.366-.115.787-.366.737-.742a.877.877 0 0 0-.169-.36 23.156 23.156 0 0 1-2.253-4.273.348.348 0 0 0-.137-.19.332.332 0 0 0-.24 0c-1.091.283-2.04.992-3.132 1.293a4.476 4.476 0 0 1-1.702.13c-.492-.054-1.168-.463-1.61-.414.273 1.62.895 3.154 1.086 4.807z"/></g><g><path fill="#6c63ff" d="M577.175 395.589c1.637-1.092 3.328-2.303 4.294-4.033a.66.66 0 0 0 .114-.344.707.707 0 0 0-.136-.338 13.978 13.978 0 0 0-3.486-3.765 10.315 10.315 0 0 0-1.949 1.795c-.409.431-1.544 1.14-1.555 1.785 0 .387.431.807.633 1.09.273.405.546.82.78 1.234.126.251 1.425 2.51 1.305 2.576z"/></g><g><path fill="#514e7f" d="M540 404.75c.034.387-.07.774-.295 1.091-.175.173-.391.3-.628.366-3.47 1.239-7.464-.311-10.913.917-.714.25-1.386.61-2.1.851-.847.255-1.72.41-2.603.464a52.11 52.11 0 0 1-3.683.223 8.91 8.91 0 0 1-2.772-.24 3.356 3.356 0 0 1-2.128-1.686 1.636 1.636 0 0 1-.104-1.2c.053-.14.128-.272.224-.388.236-.262.512-.485.818-.66l1.277-.824a8.529 8.529 0 0 1 1.932-1.026c.502-.163 1.042-.234 1.55-.382 1.794-.545 3.159-1.948 4.43-3.312l1.735-1.85c.16-.203.366-.368.6-.48.239-.082.492-.108.742-.076 1.686.124 3.314.672 4.731 1.593.366.268.757.498 1.168.688a4.17 4.17 0 0 0 3.274-.41c.447-.234.35-.381.545-.802.197-.42.644-.693 1.037-.305.118.135.202.296.246.469.382 1.239.235 2.565.235 3.858-.011.203.015.406.076.6.096.192.21.374.338.546a.837.837 0 0 1 .071.142c.216.585.283 1.215.197 1.833z"/></g><g><path fill="#464353" d="M540 404.75c.034.387-.07.774-.295 1.091-.175.173-.391.299-.628.366-3.47 1.239-7.464-.311-10.913.917-.714.25-1.386.61-2.1.85-.847.256-1.72.412-2.603.465-1.228.12-2.456.19-3.683.223a8.91 8.91 0 0 1-2.772-.24 3.356 3.356 0 0 1-2.128-1.686 1.637 1.637 0 0 1-.104-1.2 1.36 1.36 0 0 1 .224-.388c.207.426.354.982.48 1.184.35.61.947 1.039 1.637 1.174.5.026 1.001-.04 1.478-.192 3.144-.78 6.483-.79 9.495-1.97a22.692 22.692 0 0 1 3.11-1.194 24.71 24.71 0 0 1 3.361-.273c1.774-.142 3.487-.677 5.239-.955.216.584.285 1.211.202 1.828z"/></g><g><path fill="#514e7f" d="M585.098 395.376c-.164 1.315-.999 2.45-1.916 3.41a21.853 21.853 0 0 0-2.673 2.93c-.906 1.375-1.304 3.072-2.472 4.235-.442.43-.942.797-1.484 1.09-.61.361-1.256.657-1.926.885-1.74.545-3.618.43-5.457.3a4.854 4.854 0 0 1-1.724-.339 5.031 5.031 0 0 1-.731-.441 3.472 3.472 0 0 1-1.092-1.13 1.135 1.135 0 0 1-.103-.813c.108-.31.296-.584.545-.797.41-.425.85-.821 1.315-1.184a7.812 7.812 0 0 0 1.714-1.506c.303-.461.526-.97.66-1.506.263-.935.424-1.895.48-2.865a9.02 9.02 0 0 1 .202-1.915c.278-.982 1.01-1.871.922-2.892a.74.74 0 0 1 .038-.436.681.681 0 0 1 .344-.213 6.224 6.224 0 0 1 1.79-.41c.615-.038 1.216.2 1.637.65.256.306.42.731.796.868.18.038.366.038.546 0 .917-.093 1.893-.208 2.597-.802a3.274 3.274 0 0 0 1.092-2.385c0-.338-.153-.693.365-.764.399-.054.71.36.911.633a8.906 8.906 0 0 1 1.752 3.192.887.887 0 0 1 .333-.065c.473-.007.92.222 1.19.611.317.49.442 1.082.349 1.659z"/></g><g><path fill="#464353" d="M585.098 395.376c-.164 1.315-.999 2.45-1.916 3.41a21.846 21.846 0 0 0-2.673 2.93c-.906 1.375-1.304 3.072-2.472 4.235-.442.43-.942.797-1.484 1.09-.61.361-1.256.657-1.927.885-1.74.545-3.617.43-5.456.3a4.853 4.853 0 0 1-1.724-.338 4.985 4.985 0 0 1-.731-.442 3.464 3.464 0 0 1-1.092-1.13c.35-.17.734-.262 1.124-.267.814.043 1.403.807 2.183 1.042 1.091.333 2.183-.447 3.323-.715.731-.169 1.506-.12 2.22-.355a5.48 5.48 0 0 0 1.638-.993 8.324 8.324 0 0 0 1.751-1.691c.416-.646.762-1.333 1.032-2.052a29.249 29.249 0 0 1 2.079-3.978c.117-.2.26-.383.425-.545.17-.159.382-.273.546-.415.747-.546 1.058-1.511 1.32-2.406a4.03 4.03 0 0 1 .295-.802c.473-.007.919.222 1.19.61.31.482.434 1.06.349 1.627z"/></g><g><path fill="#a1616a" d="M506.71 278.819a7.924 7.924 0 0 1 2.226 2.603c.545 1.026 3.54 8.992 3.366 10.132.982-.993 4.878-1.156 5.855-2.144.415-.415 2.657-2.488 2.99-2.968.333-.48 2.832-1.512 3.105-2.003 1.02-1.828-7.235-8.73-6.182-10.564a.447.447 0 0 0 .087-.283.437.437 0 0 0-.136-.219 13.137 13.137 0 0 0-2.39-1.637 3.82 3.82 0 0 1-1.823-2.182 7.842 7.842 0 0 0-2.112 1.43 152.637 152.637 0 0 0-4.463 3.972c-.578.545-1.68 1.238-1.948 1.997-.267.758.873 1.419 1.424 1.866z"/></g><g><path fill="#514e7f" d="M520.072 275.878a23.91 23.91 0 0 0-3.536 2.892c-1.025 1.01-1.997 2.182-2.253 3.607-.104.545-.087 1.124-.175 1.686-.365 2.444-2.488 4.24-3.42 6.548a11.191 11.191 0 0 0-.601 2.182 25.717 25.717 0 0 0-.426 4.289c0 1.397 1.343 2.357 1.844 3.661.418 1.293.715 2.62.89 3.967a48.338 48.338 0 0 0 2.232 7.366c1.844 5.091 7.819 19.17 9.663 24.266 5.648-1.419 20.686-4.677 25.684-7.64 1.67-.993-11.568-12.211-9.783-12.986a.9.9 0 0 0 .496-.376.864.864 0 0 0 0-.546c-1.779-7.797-7.36-14.187-9.887-21.826-.879-2.636-2.456-4.884-3.656-7.394-1.091-2.27-1.664-4.774-2.957-6.93a4.63 4.63 0 0 0-.944-1.184 5.794 5.794 0 0 0-1.048-.627c-.715-.382-1.402-.595-2.123-.955z"/></g><g><path fill="#a1616a" d="M498.17 269.09a8.84 8.84 0 1 1 17.679 0 8.84 8.84 0 0 1-17.68 0z"/></g><g><path fill="#464353" d="M516.002 273.242a2.963 2.963 0 0 1 3.323-.474c.63.271 1.025.907.987 1.593l4.366.065a9.133 9.133 0 0 1 2.079.191c.687.15 1.301.537 1.735 1.092.054.07.114.152.202.169a.347.347 0 0 0 .201-.071 3.848 3.848 0 0 1 2.183-.393c2.368.153 4.562 1.342 6.417 2.821.341.229.607.553.764.933.153.497 0 1.135.36 1.473 0 4.12 1.413 7.956 2.357 11.967.164.714.852 1.342 1.326 1.904a7.641 7.641 0 0 1 1.419 2.117c.797 2.079-.306 4.518.475 6.608.394.854.901 1.652 1.506 2.373a6.118 6.118 0 0 1 1.282 3.067c.033.502-.033 1.004 0 1.511a9.21 9.21 0 0 0 .36 1.987c.316 1.205.655 2.411 1.004 3.612.546 1.942 1.31 4.043 3.05 5.08-4.207.715-8.637 1.408-12.648-.05a6.548 6.548 0 0 1-1.577-.79c-1.446-1.032-2.144-2.8-2.767-4.464-.698-1.871-1.407-3.77-1.55-5.762a6.59 6.59 0 0 0-.26-1.882c-.41-1.092-1.49-1.741-2.484-2.341a11.944 11.944 0 0 1-2.984-2.325 4.638 4.638 0 0 1-1.212-3.492c.077-.617.317-1.211.344-1.833a1.468 1.468 0 0 0-.851-1.512c-3.061-.928-4.524-4.55-5.206-7.677a24.495 24.495 0 0 1-.392-4.911l-.039-3.16a4.19 4.19 0 0 1-1.375-3.022c.05-.331.05-.668 0-.999a2.8 2.8 0 0 0-.698-1.091 9.213 9.213 0 0 1-1.697-2.314z"/></g><g><path fill="#464353" d="M506.584 283.353c-.099.988.125 1.997-.099 2.969-.087.37-.234.725-.343 1.091a6.44 6.44 0 0 0 .409 4.158 23.096 23.096 0 0 0 2.123 3.683c.28.392.51.82.682 1.271.141.475.23.963.262 1.457a44.393 44.393 0 0 0 1.042 5.86c.414 1.681.954 3.378 2.062 4.71.202.291.506.497.852.578.25.009.5-.044.725-.153l2.26-.857c.198-.057.383-.154.545-.283.206-.248.318-.562.316-.884.159-1.823-.387-3.629-.993-5.353-1.833-5.206-4.267-10.22-5.456-15.606-.333-1.506-.508-3.82-1.604-4.993-.453-.49-.3-.283-.84 0a6.839 6.839 0 0 0-.792.42 2.592 2.592 0 0 0-1.151 1.932z"/></g><g/><g><path fill="#6c63ff" d="M513.394 293.23c.6 3.175 1.213 6.353 1.838 9.532l8.774-2.303c.071-.916-.42-1.767-.758-2.624-.802-2.008-.819-4.24-1.468-6.303-.49-1.57-1.342-3.017-1.8-4.6-.268-.916-.399-1.876-.66-2.798a21.39 21.39 0 0 0-1.032-2.669 16.995 16.995 0 0 0-1.915-3.552c-1.124.42-2.32.906-2.958 1.915a4.07 4.07 0 0 0-.545 1.888c-.153 1.976.545 3.956.322 5.91a17.46 17.46 0 0 0 .201 5.604z"/></g><g><path fill="#464353" d="M524.154 335.567c.491 1.877-.224 3.82-.802 5.685a44.158 44.158 0 0 0-1.79 8.562 7.092 7.092 0 0 1-.442 2.182c-.325.6-.68 1.182-1.064 1.746-.884 1.561-.862 3.47-.671 5.255.125 1.179.316 2.352.546 3.514.289 1.413.643 2.897.229 4.278.693-.153 1.167.742 1.14 1.457-.027.715-.278 1.479.06 2.106.862.311.873 1.495.846 2.406.013 1.59.212 3.172.595 4.715a749.644 749.644 0 0 0 4.147 18.71c3.159.982 6.848 2.003 9.86.644a1.938 1.938 0 0 0 1.25-1.255c.03-.327-.011-.656-.121-.966l-1.43-5.194a9.564 9.564 0 0 1-.512-3.82c.141-.966.545-2.003.087-2.848-.164-.29-.415-.546-.6-.797-.753-1.091-.36-2.56-.295-3.89.022-.298 0-.598-.065-.89a4.675 4.675 0 0 0-.42-.977 14.912 14.912 0 0 1-1.638-7.42c.046-.33 0-.666-.13-.972a2.217 2.217 0 0 1-.24-.392c-.06-.24-.033-.493.076-.715a6.218 6.218 0 0 1-1.151-1.092 1.637 1.637 0 0 0 .272-2.52.84.84 0 0 0 .404-1.447c-.185-.13-.426-.185-.546-.37-.202-.273-.038-.66.126-.955l.873-1.577c.65-1.168.797-2.614 1.495-3.754a28.18 28.18 0 0 0 2.303-5.255l2.488-6.93 1.691 1.468c.566.43 1.04.97 1.392 1.588.24.607.392 1.247.447 1.899.622 3.765 2.996 7.028 3.874 10.744.123.84.393 1.653.797 2.4.17.217.324.447.458.688.125.367.19.752.191 1.14a5.314 5.314 0 0 0 2.243 3.82c.83.545 1.882.966 2.319 1.871.095.28.223.548.382.797.404.486 1.277.546 1.451 1.152.093.343-.087.747.11 1.047a.954.954 0 0 0 .409.306l2.439 1.222c2.728 1.359 4.103 4.474 6.116 6.76.695.74 1.308 1.552 1.828 2.423.868 1.55 1.272 3.498 2.729 4.496.391.206.748.47 1.058.786.464.606.295 1.457.333 2.221.038.764.627 1.67 1.353 1.44a5.268 5.268 0 0 0 0 2.821 14.22 14.22 0 0 0 8.622-3.492c.709-.622 1.396-1.413 1.402-2.351a.91.91 0 0 0-.104-.47 1.277 1.277 0 0 0-.545-.414c-2.276-1.234-2.963-4.093-4.104-6.417-1.01-2.046-2.493-3.82-3.754-5.719-2.728-4.092-4.55-9.041-8.648-11.748-.9-.594-1.948-1.124-2.396-2.106a16.836 16.836 0 0 1-.48-1.746 1.467 1.467 0 0 0-1.282-1.091 7.788 7.788 0 0 0 .294-2.728 3.387 3.387 0 0 0-.136-1.174 5.539 5.539 0 0 0-.6-1.156 11.214 11.214 0 0 1-1.544-6.003c.032-1.09.223-2.182-.104-3.224-.164-.546-.448-.999-.65-1.506a9.394 9.394 0 0 1-.469-2.81l-.223-3.596a17.217 17.217 0 0 0-.464-3.553c-.759-2.788-1.484-14.47-4.054-15.785-2.57-1.315-6.957 7.672-9.822 7.852-1.28.055-2.545.297-3.754.72-1.915.72-3.525 2.062-5.091 3.378l-5.304 4.452c-1.01.904-2.113 1.7-3.29 2.374z"/></g><g><path fill="#464353" d="M498.71 259.274a6.668 6.668 0 0 1 5.146-2.51c1.984-.001 3.937.49 5.685 1.43a7.334 7.334 0 0 0 1.637.681c.939.191 1.975-.065 2.821.382 1.124.595 1.337 2.112 1.239 3.378-.098 1.266-.333 2.652.338 3.738.235.31.452.635.65.97a3.24 3.24 0 0 1-.06 2.08 16.715 16.715 0 0 1-1.092-1.37c-.393-.43-1.064-.725-1.544-.404-.48.322-.48.917-.502 1.446-.022.53-.164 1.168-.666 1.343-.417.08-.843-.091-1.091-.437-.857-1.047-.513-2.728-1.359-3.776-.485-.6-1.287-.89-1.735-1.517-.349-.49-.436-1.13-.742-1.637-.305-.507-1.02-.922-1.5-.545a2.034 2.034 0 0 0-.399.545 2.297 2.297 0 0 1-2.728.819 4.785 4.785 0 0 0-1.184-.508 1.457 1.457 0 0 0-1.348.732 2.903 2.903 0 0 0-.354 1.56c0 .737.13 1.544-.295 2.145-.175.22-.39.405-.633.545-.628.399-1.484.666-2.074.213a1.56 1.56 0 0 1-.463-1.451c.113-.52.26-1.033.442-1.534.327-1.156-.099-2.46.262-3.552.382-.991.904-1.922 1.55-2.766z"/></g><g><path fill="#6c63ff" d="M503.446 285.645c-.056.273-.028.557.082.813.112.175.263.32.442.426a9.156 9.156 0 0 0 4.169 1.347c.19.007.377.058.546.148.319.296.417.762.245 1.162-.171.389-.26.808-.262 1.233.11.78 1.032 1.135 1.817 1.233a4.212 4.212 0 0 0 3.16-.61 4.873 4.873 0 0 0 1.304-1.96c2.144-4.91 2.897-10.367 5.069-15.278.167-.319.278-.664.327-1.02a1.015 1.015 0 0 0-.404-.944c-.403-.251-1.03-.11-1.304-.497-.136-.202-.12-.47-.24-.676-.25-.448-.906-.393-1.359-.633-.349-.191-.594-.546-.982-.65a1.255 1.255 0 0 0-1.026.442c-1.27 1.19-1.942 2.876-2.651 4.47a53.058 53.058 0 0 1-3.82 7.044c.17-.262-.807-2.254-1.19-2.33-.665-.137-1.527 1.036-1.887 1.478a9.361 9.361 0 0 0-2.036 4.802z"/></g><g><path fill="#fff" d="M507.91 335.207v-42.578h42.577v42.578z"/></g><g><path fill="#a1616a" d="M550.143 316.082a17.21 17.21 0 0 0-2.019 2.117 4.217 4.217 0 0 0-.927 2.728c.004.286.095.564.262.797a.682.682 0 0 0 .758.234 1.09 1.09 0 0 0 .371-.333c.394-.476.813-.932 1.255-1.364.164-.158.371-.327.59-.267a.62.62 0 0 1 .256.169c.258.216.447.502.546.824a1.954 1.954 0 0 1-.579 1.588c-.425.406-.758.9-.977 1.446a.615.615 0 0 0 0 .464.759.759 0 0 0 .29.25 4.213 4.213 0 0 0 3.53.23c.758-.3 1.413-.824 2.183-1.092.332-.088.656-.208.965-.36.446-.293.754-.753.857-1.277.096-.52.117-1.05.06-1.576a18.01 18.01 0 0 0-1.315-5.948.71.71 0 0 0-.213-.317.747.747 0 0 0-.36-.103c-.955-.098-2.526-.59-3.448-.235a2.359 2.359 0 0 0-.813.726c-.213.19-1.272 1.048-1.272 1.299z"/></g><g><path fill="#464353" d="M549.816 315.236c0-.917-1.135-3.116.66-3.274 0-.971-1.38-1.583-1.13-2.609.088-.349.366-.627.41-.976.114-.999-1.686-1.539-1.392-2.5.11-.365.508-.588.595-.96.202-.862-1.342-1.25-1.37-2.133 0-.3.164-.584.153-.879 0-.376-.327-.66-.507-.982-.464-.835-.24-2.128-1.092-2.553.546.043.759-.792.519-1.304-.24-.513-.71-.955-.71-1.523.028-.208.028-.419 0-.627-.158-.546-1.053-.584-1.2-1.13a5.77 5.77 0 0 1 0-.616c-.055-.426-.49-.688-.9-.813a3.577 3.577 0 0 1-1.2-.426c-.262-.202-.546-.546-.846-.355-.104.06-.159.18-.24.273-.333.387-.972.218-1.397-.07-1.25-.847-1.867-2.369-2.14-3.853-.272-1.484-.256-3.018-.583-4.491a10.319 10.319 0 0 0-.399-1.342 6.936 6.936 0 0 1-.632-1.343c-.066-.856 1.713-.272 2.39-.185.657.061 1.307.184 1.942.366a20.53 20.53 0 0 1 1.98.867c2.729 1.195 5.96 1.342 8.131 3.345.715.66 1.315 1.522 2.237 1.817.424.085.843.195 1.255.327 1.032.486 1.19 1.85 1.752 2.838.175.26.33.534.464.818.106.34.156.693.147 1.048l.076 2.592c.126 4.365.257 8.692-.207 13.008-.153 1.419-.366 2.887.049 4.256.11.371.267.726.36 1.092.088.443.136.895.142 1.347l.06 1.676a.545.545 0 0 1-.082.387.546.546 0 0 1-.453.109c-2.34-.207-4.698-1.528-6.908-.731"/></g><g><path fill="#a1616a" d="M506.306 308.399a.72.72 0 0 0-.262.218 1.86 1.86 0 0 0 0 2.215c.055.065.1.139.13.219a.645.645 0 0 1-.065.37c-.232.45-.165.996.17 1.376.168.142.398.213.507.398.19.316-.077.72-.033 1.091.055.486.627.726 1.091.786.38.09.78-.016 1.064-.284a.884.884 0 0 0 0-.965 2.582 2.582 0 0 0-.72-.72 1.091 1.091 0 0 0 1.031-1 1.55 1.55 0 0 0-.622-1.358c-.098-.082-.218-.164-.245-.295-.028-.13.103-.31.223-.436.546-.546.966-1.883-.06-2.183a2.526 2.526 0 0 0-1.09.05c-.263.081-.263.24-.465.349-.202.109-.425.054-.654.169z"/></g><g opacity=".1"><path d="M517.028 270.71a1.801 1.801 0 0 0-1.386.699 3.986 3.986 0 0 0-.579 1.855 16.266 16.266 0 0 1-2.182 5.926"/></g><g opacity=".1"><path d="M518.938 272.206a2.118 2.118 0 0 0-1.812 1.09 6.061 6.061 0 0 0-.458 1.85 10.05 10.05 0 0 1-1.818 3.88"/></g><g><path fill="#fbbebe" d="M166.91 306.97c.316 3.448-2.287 6.787-1.528 10.16.164.72.475 1.401.59 2.127.31 2.003-.885 3.902-2.025 5.577l-9.79 14.372a9.31 9.31 0 0 1-1.402 1.73c-1.877 1.637-4.681 1.49-7.142 1.986a12.248 12.248 0 0 0-4.78 2.117.311.311 0 0 0-.066.431 4.12 4.12 0 0 0 3.558 1.67c.257.338 0 .835-.355 1.091-.545.366-1.25.459-1.353 1.354-.037.31.026.623.18.894a2.767 2.767 0 0 0 1.714 1.19c3.388 1.037 7.055-.78 9.587-3.274 2.532-2.494 4.365-5.604 6.853-8.13 1.38-1.392 2.947-2.592 4.365-3.945 2.838-2.696 5.037-6.003 7.165-9.276a10.298 10.298 0 0 0 1.55-3.154c.261-1.124.141-2.308.447-3.421.393-1.452 1.462-2.614 2.346-3.82 1.74-2.39 2.898-5.32 2.668-8.267-.229-2.946-2.051-5.86-4.834-6.859a4.327 4.327 0 0 0-2.728-.169c-1.14.355-1.981 1.299-2.761 2.183l-1.856 2.15a4.956 4.956 0 0 0-1.09 1.637 1.719 1.719 0 0 0 .381 1.828"/></g><g opacity=".05"><path d="M166.91 306.97c.316 3.448-2.287 6.787-1.528 10.16.164.72.475 1.401.59 2.127.31 2.003-.885 3.902-2.025 5.577l-9.79 14.372a9.31 9.31 0 0 1-1.402 1.73c-1.877 1.637-4.681 1.49-7.142 1.986a12.248 12.248 0 0 0-4.78 2.117.311.311 0 0 0-.066.431 4.12 4.12 0 0 0 3.558 1.67c.257.338 0 .835-.355 1.091-.545.366-1.25.459-1.353 1.354-.037.31.026.623.18.894a2.767 2.767 0 0 0 1.714 1.19c3.388 1.037 7.055-.78 9.587-3.274 2.532-2.494 4.365-5.604 6.853-8.13 1.38-1.392 2.947-2.592 4.365-3.945 2.838-2.696 5.037-6.003 7.165-9.276a10.298 10.298 0 0 0 1.55-3.154c.261-1.124.141-2.308.447-3.421.393-1.452 1.462-2.614 2.346-3.82 1.74-2.39 2.898-5.32 2.668-8.267-.229-2.946-2.051-5.86-4.834-6.859a4.327 4.327 0 0 0-2.728-.169c-1.14.355-1.981 1.299-2.761 2.183l-1.856 2.15a4.956 4.956 0 0 0-1.09 1.637 1.719 1.719 0 0 0 .381 1.828"/></g><g><path fill="#eeb4b4" d="M92.34 321.62c.546 1.724 1.092 3.448 1.752 5.129a43.398 43.398 0 0 0 4.535 8.272 59.595 59.595 0 0 0 3.748 4.91c1.67 1.97 3.536 3.952 4.125 6.467.344 1.451.23 2.974.371 4.458.142 1.484.628 3.061 1.828 3.95a6.794 6.794 0 0 0 3.012.994c.753.12 1.697.158 2.09-.497.138-.267.209-.562.208-.862l.185-2.183c.038-.47.202-1.091.671-1.091.47 0 .71.606 1.092.884a1.184 1.184 0 0 0 1.637-.546c.244-.61.26-1.288.043-1.91a9.069 9.069 0 0 0-4.654-5.767 13.997 13.997 0 0 1-2.27-1.184 7.722 7.722 0 0 1-1.784-2.248c-4.126-6.794-8.272-13.641-11.186-21.013a15.547 15.547 0 0 1-1.152-4.142 26.74 26.74 0 0 1 .18-4.365 24.986 24.986 0 0 0-.72-7.792 6.126 6.126 0 0 0-.747-1.893c-1.195-1.823-4.016-2.09-5.795-.835a5.97 5.97 0 0 0-2.303 4.212c-.13 1.468.72 3.001 1.152 4.365 1.335 4.227 2.662 8.456 3.983 12.687z"/></g><g><path fill="#3f3d56" d="M175.144 386.41c-2.14 1.305-4.802 1.381-7.29 1.092-.399-.05-.873-.082-1.13.23-.37.447.066 1.09.519 1.473a10.847 10.847 0 0 0 5.009 2.057c1.627.227 3.268.336 4.91.327 4.47.076 8.96.147 13.385-.497.257-.017.506-.09.732-.212.28-.203.474-.502.545-.84a3.344 3.344 0 0 0-1.168-3.187 9.82 9.82 0 0 0-3.12-1.675l-3.886-1.512c-.91-.355-2.379-1.298-3.366-1.222-1.834.12-3.596 3.061-5.14 3.967z"/></g><g><path fill="#3f3d56" d="M184.905 395.54a9.543 9.543 0 0 1-6.52 2.433c-.611 0-1.463.115-1.463.726.01.182.07.358.175.507a6.003 6.003 0 0 0 3.372 2.641c1.332.317 2.71.404 4.07.257l3.984-.208c.753-.038 1.511-.076 2.259-.169.748-.093 1.56-.245 2.34-.365a31.191 31.191 0 0 1 5.801-.273c.51.1 1.037-.041 1.43-.382.355-.448.147-1.091.032-1.637-.24-1.151 0-2.363-.223-3.525-.382-2.03-2.128-3.59-4.065-4.327-1.79-.682-4.966-1.462-6.663-.328-1.822 1.206-2.919 3.193-4.529 4.65z"/></g><g><path fill="#464353" d="M177.037 343.997c-1.637 2.155-3.274 4.644-2.892 7.306.218 1.435 1.02 2.701 1.61 4.033a28.422 28.422 0 0 1 1.637 5.664c.605 2.82 1.211 5.647 1.588 8.506.418 3.238.536 6.508.354 9.768-.049.785-.136 1.637-.682 2.182-.218.218-.502.399-.595.693-.059.28-.014.57.126.819a9.063 9.063 0 0 0 4.856 4.469 18.601 18.601 0 0 0 6.603 1.233c.3.034.603-.005.884-.115.302-.183.54-.455.682-.78 1.637-3.11.725-6.864.753-10.368 0-2.93.709-5.833.583-8.763-.103-2.346-.73-4.638-.96-6.979-.376-3.82.327-7.693 1.031-11.486.546-2.902 1.092-5.81 1.774-8.686.347-1.772.98-3.475 1.877-5.042.764-1.206 1.8-2.215 2.673-3.35a15.207 15.207 0 0 0 2.99-11.115c-.054-.393-5.62 1.407-6.1 1.636a18.915 18.915 0 0 0-5.456 3.498c-1.288 1.222-2.297 2.86-3.427 4.234a350.5 350.5 0 0 0-4.704 5.85 404.29 404.29 0 0 0-5.205 6.793z"/></g><g opacity=".05"><path d="M177.037 343.997c-1.637 2.155-3.274 4.644-2.892 7.306.218 1.435 1.02 2.701 1.61 4.033a28.422 28.422 0 0 1 1.637 5.664c.605 2.82 1.211 5.647 1.588 8.506.418 3.238.536 6.508.354 9.768-.049.785-.136 1.637-.682 2.182-.218.218-.502.399-.595.693-.059.28-.014.57.126.819a9.063 9.063 0 0 0 4.856 4.469 18.601 18.601 0 0 0 6.603 1.233c.3.034.603-.005.884-.115.302-.183.54-.455.682-.78 1.637-3.11.725-6.864.753-10.368 0-2.93.709-5.833.583-8.763-.103-2.346-.73-4.638-.96-6.979-.376-3.82.327-7.693 1.031-11.486.546-2.902 1.092-5.81 1.774-8.686.347-1.772.98-3.475 1.877-5.042.764-1.206 1.8-2.215 2.673-3.35a15.207 15.207 0 0 0 2.99-11.115c-.054-.393-5.62 1.407-6.1 1.636a18.915 18.915 0 0 0-5.456 3.498c-1.288 1.222-2.297 2.86-3.427 4.234a350.5 350.5 0 0 0-4.704 5.85 404.29 404.29 0 0 0-5.205 6.793z"/></g><g><path fill="#464353" d="M188.856 327.42c.349 1.67 1.97 2.947 2.013 4.655.038 1.364-.933 2.51-1.637 3.683a24.716 24.716 0 0 0-1.67 3.787 57.744 57.744 0 0 1-4.91 9.75c-.933 1.485-1.981 3.094-1.763 4.835.147.812.433 1.593.846 2.308l2.805 5.571a15.99 15.99 0 0 1 1.43 3.52c.245 1.058.267 2.182.409 3.23.442 3.415 2.04 6.853 1.09 10.165-.081.284-.381.628-.605.431.928 1.73 1.675 3.476 1.599 5.457-.033 1.031-.35 2.1.033 3.061.213.36.358.755.425 1.168 0 .278-.13.545-.158.824-.076.785.644 1.446 1.397 1.697.753.25 1.571.234 2.33.458 1.462.436 2.499 1.691 3.754 2.564a7.883 7.883 0 0 0 4.305 1.403c.219.023.44-.02.633-.126.222-.194.351-.474.355-.77a4.278 4.278 0 0 0-1.544-3.715 1.719 1.719 0 0 1-.546-.6 1.456 1.456 0 0 1-.055-.671c.23-3.063.175-6.141-.163-9.194a14.185 14.185 0 0 1-.142-2.925c.161-.803.24-1.62.234-2.44-.172-.798-.422-1.579-.747-2.33-.431-1.39-.311-2.886-.355-4.364a38.257 38.257 0 0 0-1.233-7.47 5.67 5.67 0 0 0-1.162-2.696c-.584-.611-1.528-1.19-1.304-2.003.123-.3.31-.572.545-.796.55-.686.792-1.568.671-2.44a1.091 1.091 0 0 0 1.255-.588 19.644 19.644 0 0 0 9.866-11.22c.096-.352.245-.689.442-.998.42-.589 1.157-.845 1.806-1.173 2.04-1.026 3.449-2.952 4.742-4.834a11.245 11.245 0 0 0 1.833-3.509c.177-.832.26-1.681.251-2.532l.115-4.365a2.507 2.507 0 0 0-.082-.857 2.183 2.183 0 0 0-.475-.698 8.474 8.474 0 0 0-4.66-2.51c-1.195-.213-2.417-.175-3.628-.273-2.347-.196-4.666-.922-7.017-.753-3.69.273-6.974 2.832-8.731 6.095-.644 1.168-1.288 2.15-2.597 2.188z"/></g><g><path fill="#514e7f" d="M66.417 394.246a5.94 5.94 0 0 0 2.51.3c.06-.693.993-.846 1.686-.813.345-.017.687.058.993.218.175.11.306.273.475.388.3.165.639.251.982.25l3.612.306c1.61.137 3.274.262 4.791-.316.302-.09.57-.268.77-.513.409-.584 0-1.424-.546-1.85-.546-.425-1.294-.622-1.861-1.058-1.255-.955-1.424-2.728-2.09-4.169a12.028 12.028 0 0 0-1.724-2.505 9.59 9.59 0 0 0-1.708-1.746c-1.446-1.047-3.116-1.025-4.813-1.173-1.2-.109-2.33-.18-3.192.884-1.064 1.32-.638 3.983-.573 5.56.065 2.094.295 4.18.688 6.237z"/></g><g opacity=".05"><path d="M66.417 394.246a5.94 5.94 0 0 0 2.51.3c.06-.693.993-.846 1.686-.813.345-.017.687.058.993.218.175.11.306.273.475.388.3.165.639.251.982.25l3.612.306c1.61.137 3.274.262 4.791-.316.302-.09.57-.268.77-.513.409-.584 0-1.424-.546-1.85-.546-.425-1.294-.622-1.861-1.058-1.255-.955-1.424-2.728-2.09-4.169a12.028 12.028 0 0 0-1.724-2.505 9.59 9.59 0 0 0-1.708-1.746c-1.446-1.047-3.116-1.025-4.813-1.173-1.2-.109-2.33-.18-3.192.884-1.064 1.32-.638 3.983-.573 5.56.065 2.094.295 4.18.688 6.237z"/></g><g><path fill="#464353" d="M67.88 324.032c-1.092.354-1.583 1.73-1.381 2.875.202 1.146.89 2.128 1.457 3.138 1.604 2.875 2.302 6.166 3.65 9.167 1.01 2.242 2.374 4.316 3.372 6.548.999 2.231 1.637 4.785 1.01 7.17-.295 1.162-.863 2.231-1.245 3.366a19.102 19.102 0 0 0-.73 3.82 72.402 72.402 0 0 0-.263 13.183c.006.537.119 1.068.333 1.56.224.437.617.895.426 1.348-.077.18-.24.31-.322.491-.23.502.235 1.026.655 1.38a1.13 1.13 0 0 1-.71.546c.624.396.915 1.155.715 1.866-.376.055-.398.628-.158.928.24.3.606.491.775.83a1.162 1.162 0 0 1-.639 1.462 2.99 2.99 0 0 1-1.74.13 18.865 18.865 0 0 1-2.914-.638 2.617 2.617 0 0 1-.895-.409 2.658 2.658 0 0 1-.802-1.768 31.944 31.944 0 0 1-.202-5.457c.158-8.817 0-17.646-.382-26.458-.158-3.547-1.222-7.006-2.597-10.28a52.762 52.762 0 0 0-2.532-4.911c-1.975-3.634-3.732-7.64-3.274-11.759.05-.442.213-.977.65-1.048.171-.019.345.01.501.082.913.43 1.797.918 2.647 1.463a10.03 10.03 0 0 0 4.594 1.375z"/></g><g opacity=".05"><path d="M67.88 324.032c-1.092.354-1.583 1.73-1.381 2.875.202 1.146.89 2.128 1.457 3.138 1.604 2.875 2.302 6.166 3.65 9.167 1.01 2.242 2.374 4.316 3.372 6.548.999 2.231 1.637 4.785 1.01 7.17-.295 1.162-.863 2.231-1.245 3.366a19.102 19.102 0 0 0-.73 3.82 72.402 72.402 0 0 0-.263 13.183c.006.537.119 1.068.333 1.56.224.437.617.895.426 1.348-.077.18-.24.31-.322.491-.23.502.235 1.026.655 1.38a1.13 1.13 0 0 1-.71.546c.624.396.915 1.155.715 1.866-.376.055-.398.628-.158.928.24.3.606.491.775.83a1.162 1.162 0 0 1-.639 1.462 2.99 2.99 0 0 1-1.74.13 18.865 18.865 0 0 1-2.914-.638 2.617 2.617 0 0 1-.895-.409 2.658 2.658 0 0 1-.802-1.768 31.944 31.944 0 0 1-.202-5.457c.158-8.817 0-17.646-.382-26.458-.158-3.547-1.222-7.006-2.597-10.28a52.762 52.762 0 0 0-2.532-4.911c-1.975-3.634-3.732-7.64-3.274-11.759.05-.442.213-.977.65-1.048.171-.019.345.01.501.082.913.43 1.797.918 2.647 1.463a10.03 10.03 0 0 0 4.594 1.375z"/></g><g><path fill="#464353" d="M52.972 313.31a3.88 3.88 0 0 0-1.92-.606 3.897 3.897 0 0 0-2.09 1.037 21.896 21.896 0 0 0-2.074 1.822 11.093 11.093 0 0 0-2.477 10.973c.66 1.96 1.855 3.689 3.033 5.38l2.401 3.449c3.662 5.26 7.329 10.52 11.164 15.655a.59.59 0 0 0 .415.545c.142.039.311.033.398.148a.425.425 0 0 1 .05.234 3.563 3.563 0 0 1-.213 1.092.508.508 0 0 0-.044.376c.12.29.65.126.813.398.115.175 0 .41-.175.546-.174.136-.327.322-.3.546.028.223.393.43.377.704 0 .152-.131.267-.224.387a.988.988 0 0 0 .12 1.26c.251 2.51-1.091 4.884-1.38 7.394-.431 3.945 1.353 7.798 1.571 11.759a3.15 3.15 0 0 0 .246 1.299c.37.682 1.32 1.09 1.287 1.871-.067.32-.156.636-.267.944.007.453.055.904.142 1.348 0 .453-.382.993-.802.818.316 1.048.596 2.105.84 3.17l8.403.694a7.546 7.546 0 0 0-.076-2.27c-.175-.808-.546-1.566-.731-2.374a2.8 2.8 0 0 1 .333-2.373.928.928 0 0 1-.928-.764 3.743 3.743 0 0 1 0-1.304c.224-2.183-.699-4.366-.671-6.548.027-1.736.633-3.4.944-5.102.655-3.645-.028-7.601 1.593-10.913.982-2.008 2.34-4.234 1.239-6.177-.546-.96-1.5-1.637-2.123-2.521a10.24 10.24 0 0 1-1.14-2.728c-1.299-4.016-3.389-7.721-5.228-11.524a12.13 12.13 0 0 1-1.124-3.029c-.13-.925-.175-1.86-.136-2.793a42.822 42.822 0 0 0-.311-5.02 4.698 4.698 0 0 0-.611-2.08 4.656 4.656 0 0 0-1.31-1.194c-2.755-1.877-6.04-2.963-9.014-4.53z"/></g><g><path fill="#514e7f" d="M63.04 397.324a5.941 5.941 0 0 0 2.51.3c.065-.693.992-.846 1.685-.813.336-.01.669.067.966.224.175.109.306.272.48.387.3.166.639.253.982.251l3.607.306c1.61.136 3.274.261 4.796-.317.3-.091.566-.27.764-.513.41-.584 0-1.424-.545-1.85-.546-.425-1.293-.622-1.866-1.058-1.25-.955-1.425-2.728-2.09-4.169a12.034 12.034 0 0 0-1.724-2.504 9.56 9.56 0 0 0-1.703-1.747c-1.451-1.047-3.116-1.025-4.813-1.173-1.205-.109-2.335-.18-3.192.884-1.09 1.32-.643 3.983-.578 5.56a40.54 40.54 0 0 0 .72 6.232z"/></g><g><path fill="#fff" d="M108.601 376.61v-42.577h42.577v42.578z"/></g><g><path fill="#fbbebe" d="M91.953 290.441a8.321 8.321 0 1 1 16.643 0 8.321 8.321 0 0 1-16.643 0z"/></g><g><path fill="#fbbebe" d="M92.428 292.908c-1.195 1.03-2.903 1.091-4.469 1.266a27.93 27.93 0 0 0-9.614 2.782c-.41.181-.781.44-1.091.764a3.15 3.15 0 0 0-.546 1.19 7.868 7.868 0 0 0-.317 2.892c.11.948.38 1.871.802 2.728a14.645 14.645 0 0 0 5.162 5.882c.378.277.803.48 1.255.6 1.092.23 2.156-.409 3.23-.693a5.294 5.294 0 0 1 2.985.099c.906.3 1.861.85 2.729.485a2.848 2.848 0 0 0 1.244-1.413 47.96 47.96 0 0 0 2.27-4.971c.238-.659.513-1.303.824-1.931.965-1.84 2.635-3.274 3.464-5.162.17-.296.199-.653.077-.972a1.348 1.348 0 0 0-.611-.469 14.582 14.582 0 0 1-3.323-2.608c-.546-.546-1.555-1.943-2.341-2.068-.862-.115-1.13 1.086-1.73 1.599z"/></g><g><path fill="#514e7f" d="M92.625 309.817c-.966.464-2.101.257-3.149.038-2.695-.545-5.418-1.134-7.912-2.302a4.233 4.233 0 0 1-1.942-1.49 4.763 4.763 0 0 1-.546-1.866l-.458-3.094c-.159-1.091.12-2.084.141-3.175a.928.928 0 0 0-.18-.693.748.748 0 0 0-.545-.17c-1.25 0-2.003 1.326-2.881 2.216a5.321 5.321 0 0 1-1.768 1.19c-.802.327-1.79.545-2.112 1.358-.136.333-.12.715-.256 1.048-.546 1.331-2.947.89-3.553 2.182-.174.371-.163.84-.452 1.135-.29.295-.819.284-1.255.36-1.736.284-2.581 2.292-4.065 3.236-1.25.797-2.86.78-4.202 1.402-.699.419-1.429.784-2.183 1.092-.835.145-1.686.188-2.531.125a.682.682 0 0 0-.508.164.698.698 0 0 0-.082.546 15.316 15.316 0 0 0 9.467 11.856c.286.093.557.223.808.388.758.546.89 1.784 1.746 2.183a1.806 1.806 0 0 0 1.822-.393c.468-.456.907-.941 1.315-1.452a5.238 5.238 0 0 1 2.93-1.538c1.032-.164 2.183-.044 3.018-.677.341-.314.659-.653.95-1.015a5.954 5.954 0 0 1 2.182-1.288 21.823 21.823 0 0 1 6.82-1.44c2.183-.126 4.448.076 6.516-.639a3.82 3.82 0 0 0 1.451-.818 4.367 4.367 0 0 0 .972-1.686c.752-2.18.905-4.523.442-6.783z"/></g><g><path fill="#514e7f" d="M81.897 297.557c.617-.055 1.233 0 1.85 0 .725 0 1.44-.175 2.182-.18a5.38 5.38 0 0 1 5.075 3.863.982.982 0 0 1 .033.545.387.387 0 0 1-.42.284 9.221 9.221 0 0 0-.934-1.871 5.299 5.299 0 0 0-2.793-1.943 7.254 7.254 0 0 0-3.438-.126c-.47.088-.933.214-1.397.344l-2.264.612c-.41.109-.819.223-1.217.37-.306.11-.835.546-1.135.546-.41 0-.076-.354.104-.595a2.915 2.915 0 0 1 1.451-1.053 12.215 12.215 0 0 1 2.903-.796z"/></g><g><path fill="#fbbebe" d="M87.506 322.553c.546 1.724 1.092 3.448 1.752 5.13a43.406 43.406 0 0 0 4.54 8.271 59.597 59.597 0 0 0 3.748 4.911c1.67 1.97 3.536 3.95 4.125 6.466.344 1.451.23 2.974.371 4.458.142 1.484.628 3.061 1.828 3.95a6.793 6.793 0 0 0 3.012.994c.753.12 1.697.158 2.09-.497.138-.266.209-.562.208-.862l.18-2.183c.043-.469.207-1.091.676-1.091.47 0 .71.606 1.092.884a1.185 1.185 0 0 0 1.637-.546c.24-.611.256-1.288.043-1.91a9.069 9.069 0 0 0-4.643-5.772 13.988 13.988 0 0 1-2.27-1.184 7.64 7.64 0 0 1-1.784-2.249c-4.131-6.793-8.278-13.64-11.186-21.013a15.546 15.546 0 0 1-1.152-4.141c-.059-1.458.001-2.918.18-4.365A24.986 24.986 0 0 0 91.25 304a6.128 6.128 0 0 0-.747-1.894c-1.195-1.822-4.016-2.09-5.795-.835a5.97 5.97 0 0 0-2.303 4.213c-.13 1.468.72 3.001 1.152 4.365 1.317 4.238 2.633 8.472 3.95 12.703z"/></g><g><path fill="#464353" d="M112.383 284.56c.065-.694-.546-1.321-1.26-1.763a17.605 17.605 0 0 1-2.14-1.31c-.633-.546-.977-1.26-1.61-1.806a7.097 7.097 0 0 0-2.4-1.195 18.227 18.227 0 0 0-5.74-1.031 10.11 10.11 0 0 0-5.495 1.451c-.365.225-.682.52-.933.868a3.82 3.82 0 0 0-.453 1.38 27.287 27.287 0 0 1-1.435 4.366c-.617 1.571-1.277 3.197-2.729 4.408-1.555 1.3-3.94 2.047-4.965 3.613-.227.283-.31.656-.224 1.009.148.393.622.66 1.053.911 2.527 1.452 4.704 3.329 5.828 5.577a6.466 6.466 0 0 1-.513 6.957c-.584.764-1.391 1.67-.819 2.439.868 1.168 3.864.502 4.551 1.735.143.41.175.85.093 1.277 0 1.293 1.25 2.45 2.766 3.045 1.603.544 3.284.82 4.977.818a4.3 4.3 0 0 0 .125-3.22 1.287 1.287 0 0 1-.125-.73c.118-.278.306-.52.545-.704 1.828-1.724 1.441-4.262.344-6.308-1.097-2.046-2.799-3.923-3.432-6.079-.316-1.09-.322-2.275.546-3.164.487-.428 1.011-.811 1.566-1.146a5.953 5.953 0 0 0 2.182-2.728c.508-1.42.431-3.127 1.926-4.066 1.496-.938 3.433-.633 5.01-1.238 1.271-.508 2.662-2.357 2.76-3.367z"/></g><g><path fill="#fbbebe" d="M149.967 287.5a9.074 9.074 0 1 1 18.149 0 9.074 9.074 0 0 1-18.149 0z"/></g><g><path fill="#fbbebe" d="M167.21 287.118a11.765 11.765 0 0 0 7.53 5.266l-.682 2.477c-1.179 4.267-2.51 8.785-5.806 11.743a5.49 5.49 0 0 0-.922-4.246 16.079 16.079 0 0 0-3.078-3.22l-5.222-4.544a1.423 1.423 0 0 1-.392-.437 1.331 1.331 0 0 1 0-.993c.665-2.073 2.564-3.367 4.103-4.763a14.48 14.48 0 0 0 2.068-2.407c1.07-1.473 1.74.017 2.4 1.124z"/></g><g><path fill="#3f3d56" d="M168.367 298.855a4.91 4.91 0 0 1-.268 2.003 1.408 1.408 0 0 1-1.637.84c.191-.431-.31-.922-.78-.867a1.467 1.467 0 0 0-1.037.878 3.274 3.274 0 0 0-.3 2.03c.147.862.644 1.686.513 2.548-.104.715-.633 1.43-.35 2.1.183.304.411.576.677.808a2.292 2.292 0 0 1-.245 3.143l7.093.137c-.262 1.184.273 2.395.879 3.443a21.678 21.678 0 0 0 16.162 10.553 1.408 1.408 0 0 0-.338 2.15c.578.572 1.55.501 2.27.13a17.23 17.23 0 0 0 1.948-1.456 5.953 5.953 0 0 1 3.994-1.092c.89.082 1.746.366 2.635.415 2.62.142 4.873-1.746 7.378-2.515 1.838-.546 3.917-.546 5.456-1.714.666-.49 1.211-1.299 1.015-2.106a3.433 3.433 0 0 0-.764-1.233c-.89-1.151-1.408-2.532-2.046-3.82a22.803 22.803 0 0 0-5.113-6.842 45.113 45.113 0 0 0-5.064-3.847 8.565 8.565 0 0 0-1.375-.824c-.643-.21-1.27-.465-1.877-.764-.834-.546-1.31-1.446-1.948-2.183-1.402-1.636-3.557-2.384-5.287-3.672-1.157-.862-2.183-1.997-3.563-2.417-.671-.202-1.391-.218-2.063-.42-1.527-.464-2.64-1.823-4.141-2.368-1.184-.437-2.494-.322-3.749-.48a8.732 8.732 0 0 1-3.852-1.457 4.626 4.626 0 0 0-1.244-.731c-1.894-.546-2.046 2.957-2.226 4.18-.284 1.783-.753 3.611-.753 5.45z"/></g><g><path fill="#fbbebe" d="M170.216 310.701c.317 3.443-2.286 6.783-1.528 10.16.164.72.47 1.403.584 2.129.317 2.002-.878 3.895-2.019 5.57l-9.821 14.373a8.734 8.734 0 0 1-1.397 1.73c-1.877 1.664-4.682 1.49-7.143 1.991a12.227 12.227 0 0 0-4.785 2.118.311.311 0 0 0-.06.425 4.104 4.104 0 0 0 3.557 1.67c.257.338 0 .84-.354 1.091-.546.366-1.25.464-1.353 1.353-.037.311.024.626.174.9a2.794 2.794 0 0 0 1.719 1.19c3.388 1.037 7.05-.785 9.587-3.274 2.537-2.488 4.365-5.603 6.853-8.13 1.381-1.397 2.947-2.592 4.366-3.945 2.832-2.728 5.036-6.002 7.164-9.276a10.323 10.323 0 0 0 1.55-3.16c.262-1.118.142-2.307.447-3.415.393-1.457 1.457-2.62 2.347-3.82 1.74-2.395 2.897-5.32 2.668-8.272-.23-2.952-2.057-5.855-4.835-6.859a4.327 4.327 0 0 0-2.728-.163c-1.14.349-1.98 1.293-2.761 2.182l-1.86 2.15a5.103 5.103 0 0 0-1.092 1.637 1.719 1.719 0 0 0 .382 1.828"/></g><g><path fill="#3f3d56" d="M175.17 296.553c-1.287.076-2.727.202-3.617 1.091-.38.422-.686.906-.906 1.43-.884 1.795-1.746 3.677-1.806 5.68-.054 1.599.41 3.165.655 4.747.202 1.315-.311 2.657-.41 3.989a27.238 27.238 0 0 0 5.152-1.98 17.219 17.219 0 0 1 3.017-1.567c1.533-.513 4.12.366 5.571 1.091.082-1.025-.687-2.81-.605-3.82.01-.432.087-.861.229-1.27.217-.434.474-.845.77-1.228a5.025 5.025 0 0 0-.454-5.899c-1.293-1.457-3.323-2.002-5.26-2.232a22.99 22.99 0 0 0-3.677-.125"/></g><g><path fill="#464353" d="M147.086 278.377l-.207-1.708c1.435.366 2.793-.846 3.71-2.106.917-1.26 1.763-2.728 3.154-3.274 1.697-.639 3.492.382 5.113 1.222a16.005 16.005 0 0 0 5.866 1.943c.328.014.655.067.97.158 1.054.377 1.556 1.697 1.709 2.897.153 1.2.109 2.478.627 3.547.399.808 1.091 1.413 1.484 2.183 1.092 2.144.039 5.08 1.212 7.186l-2.909-2.663c-.267-.245-.644-.502-.933-.295-.289.208-.25.546-.349.803a1.522 1.522 0 0 1-2.068.752 5.669 5.669 0 0 1-1.85-1.69 11.307 11.307 0 0 0-4.616-3.499 5.9 5.9 0 0 0-4.883.29c-1.36.77-2.352 2.553-4.016 2.613-2.281.088-3.23-4.158-4.284-5.833a2.068 2.068 0 0 0 .6-2.575c.159-.055 1.637-.213 1.67.049z"/></g><g><path fill="#6c63ff" d="M352.371 170.392c-.905.4-1.865.663-2.848.78a4.993 4.993 0 0 0 2.183-2.728 9.976 9.976 0 0 1-3.154 1.206 4.955 4.955 0 0 0-8.583 3.389c-.003.382.039.763.125 1.135a14.05 14.05 0 0 1-10.225-5.195 4.982 4.982 0 0 0 1.539 6.635 4.835 4.835 0 0 1-2.254-.622v.06a4.971 4.971 0 0 0 3.984 4.873 5.155 5.155 0 0 1-1.31.174c-.314 0-.626-.031-.933-.092a4.982 4.982 0 0 0 4.638 3.448 9.952 9.952 0 0 1-7.35 2.057 13.897 13.897 0 0 0 7.595 2.243c9.14 0 14.133-7.568 14.133-14.138v-.638c.967-.71 1.8-1.585 2.46-2.587z"/></g><g><path fill="#6c63ff" d="M355.89 274.956l-.135 4.638-3.58 3.372-.136 4.638-2.248-2.385-2.985 2.816-9.587-10.144 11.333-10.689zm-21.552 2.27l1.637 4.108 10.689 11.334 3.58-3.373 2.253 2.385 2.385-2.254.136-4.632 2.98-2.816.24-8.114-9.566-10.138z"/></g><g><path fill="#6c63ff" d="M343.014 276.865l1.79-1.691 4.534 4.812-1.79 1.687zm4.174-3.94l1.79-1.685 4.54 4.807-1.79 1.68z"/></g><g><path fill="#6c63ff" d="M136.539 342.115h-17.505c-.603 0-1.091.488-1.091 1.09v17.51c0 .604.488 1.092 1.091 1.092h8.73v-7.797h-2.351v-2.87h2.395v-2.123c0-2.537 1.763-3.923 4.033-3.923 1.09 0 2.259.082 2.526.12v2.652h-1.806c-1.233 0-1.473.584-1.473 1.446v1.828h2.94l-.381 2.87h-2.565v7.792h5.457c.602 0 1.09-.489 1.09-1.092v-17.504c0-.603-.488-1.091-1.09-1.091z"/></g><g><path fill="#6c63ff" d="M289.583 215.523a5.762 5.762 0 0 1 5.74 5.762v8.185a5.757 5.757 0 0 1-5.74 5.719h-8.185a5.757 5.757 0 0 1-5.74-5.74v-8.185a5.756 5.756 0 0 1 5.74-5.74h8.185zm-8.185 1.637a4.109 4.109 0 0 0-4.103 4.098v8.185a4.065 4.065 0 0 0 1.206 2.897 4.114 4.114 0 0 0 2.897 1.2h8.185a4.109 4.109 0 0 0 4.098-4.097v-8.185a4.109 4.109 0 0 0-4.098-4.098z"/></g><g><path fill="#6c63ff" d="M290.413 225.345a4.91 4.91 0 1 1-9.822 0 4.91 4.91 0 0 1 9.822 0zm-8.185 0a3.274 3.274 0 1 0 3.274-3.274zm8.583-4.076a1.233 1.233 0 1 1 1.228-1.228 1.222 1.222 0 0 1-1.228 1.228z"/></g><g><path fill="#6c63ff" d="M527.422 318.733v-10.072l7.432 5.03zm15.459-10.514c0-2.303-1.697-4.158-3.82-4.158a181.592 181.592 0 0 0-8.692-.186h-.922c-2.952 0-5.855.05-8.693.186-2.09 0-3.787 1.86-3.787 4.168a73.378 73.378 0 0 0-.18 5.457c.006 1.806.05 3.65.175 5.457 0 2.308 1.697 4.18 3.787 4.18 2.98.136 6.04.196 9.15.196 3.11 0 6.166-.055 9.157-.197 2.095 0 3.82-1.871 3.82-4.18.12-1.827.18-3.65.174-5.483a86.222 86.222 0 0 0-.17-5.457z"/></g><g><path fill="#6c63ff" d="M271.86 115.123a11.459 11.459 0 0 0-4.605 21.995 10.21 10.21 0 0 1 .197-2.635c.223-.933 1.478-6.259 1.478-6.259a4.364 4.364 0 0 1-.37-1.811c0-1.703.987-2.974 2.215-2.974 1.047 0 1.55.786 1.55 1.724 0 1.048-.672 2.62-1.016 4.07a1.773 1.773 0 0 0 1.812 2.21c2.183 0 3.64-2.793 3.64-6.105 0-2.516-1.698-4.393-4.775-4.393a5.456 5.456 0 0 0-5.653 5.495c-.036.82.235 1.623.758 2.254a.546.546 0 0 1 .164.638c-.054.213-.18.72-.234.922a.399.399 0 0 1-.579.29c-1.604-.656-2.352-2.413-2.352-4.366 0-3.274 2.729-7.17 8.185-7.17 4.365 0 7.268 3.17 7.268 6.575 0 4.502-2.504 7.869-6.198 7.869a3.274 3.274 0 0 1-2.8-1.43s-.67 2.64-.813 3.154a9.464 9.464 0 0 1-1.15 2.46 11.63 11.63 0 0 0 3.273.47c6.35 0 11.494-5.145 11.494-11.491 0-6.347-5.145-11.492-11.491-11.492z"/></g><g><path fill="url(#xojka)" d="M392.03 432.977c-.443-1.872-.71-3.509-.71-3.509a7.268 7.268 0 0 0-.813-3.563V421.627c.258-.683.576-1.342.95-1.97.676-1.178 0-5.51 0-5.51s-2.51-6.107-1.905-9.98c.606-3.875-5.15-17.205-5.15-17.205.036-1.29.219-2.571.545-3.82.062-.26.086-.529.07-.797a.572.572 0 0 0 0-.098v.033c-.087-2.554-2.106-7.344-2.106-7.344l.274-9.124s1.287-5.385-.814-12.61c-.736-2.52-1.206-4.534-1.506-6.095-.032-.174-.065-.343-.092-.507 4.327-.66 7.639-1.212 7.639-1.212s-2.51-10.503-4.207-12.342c-1.697-1.839-3.05-7.612-3.05-7.612s-.884-7.42.545-9.587c1.43-2.166 1.637-5.91 1.637-5.91s3.274-2.362 3.661-3.415a17.295 17.295 0 0 0 1.092-4.66c0-1.25-.41-2.363-.273-3.023.136-.66-.95-3.149-.404-4.333a3.17 3.17 0 0 0 .213-1.173 16.218 16.218 0 0 0-.289-3.083 8.732 8.732 0 0 0-3.22-1.724l-.07-.278-.186-.737a2.49 2.49 0 0 0-.322-.19v-1.364l.507-2.402c1.004-4.163-4.561-4.785-4.561-4.785a2.935 2.935 0 0 0-1.577-1.386c-1.091-.393-.186 6.275.338 6.7.393.317 1.637 2.412 2.183 3.438l.098.17a2.221 2.221 0 0 0-.256.267l.212 1.446.033.223c-.37.457-.67.967-.89 1.512 0 0 1.021 1.118.814 2.368a7.42 7.42 0 0 0 .338 2.886c-.06-.07-.775-.845-1.49-.655-.714.192-2.728.787-2.728.787s-1.495.261-1.358.589c.136.327-1.015 1.773-1.015 1.773l-4.011-3.82a8.417 8.417 0 0 1-.12-.343 9.163 9.163 0 0 1-.344-1.637 8.908 8.908 0 0 0 1.277-.41c.415-.146.79-.389 1.091-.709a4.33 4.33 0 0 0 .644-1.73c.317-1.167.999-2.21 1.49-3.317a10.79 10.79 0 0 0 .775-5.92 3.937 3.937 0 0 0-.611-1.747c-.655-.9-1.845-1.265-2.729-1.986-.884-.72-1.418-1.811-2.428-2.352a4.785 4.785 0 0 0-3.044-.261 16.275 16.275 0 0 0-5.68 2.062c-.59.35-1.228.748-1.905.628a2.57 2.57 0 0 1-1.37-1.004.272.272 0 0 1 0-.06l-.049-.05a7.186 7.186 0 0 0-.622 3.002v.643c.003.048.003.095 0 .142a.966.966 0 0 1-.033.213c-.082.207-.209.393-.37.546a2.421 2.421 0 0 0-.328.447c0-.054.033-.109.055-.163a2.367 2.367 0 0 0-.42 1.26c-.022.33.088.656.305.906.198.202.416.385.65.545a7.63 7.63 0 0 0-.115 1.332 7.76 7.76 0 0 0 3.776 6.618l.136.344a9.54 9.54 0 0 1 .726 4.366c0 .109 0 .212-.05.321l-.141.164s-6.625.066-8.185-1.348c-1.56-1.413-3.934 3.449-3.934 3.449s-2.374.464-2.848 0c-.475-.464-3.275-.066-3.275-.066a6.003 6.003 0 0 0-4.136-1.506 12.152 12.152 0 0 0-3.039-1.691l-.076-.027a3.397 3.397 0 0 0-1.495-.186s-3.274-2.695-4.202-4.136c-.927-1.44-5.456-6.804-5.495-6.831v-.257l-.054-.78a3.035 3.035 0 0 1-.404.038c0-.082-.054-.17-.093-.273a14.741 14.741 0 0 0-.96-2.182s0-.983.29-1.228c.288-.246-.12-3.858-.12-3.858s-2.936-6.859-5.561-1.74c0 0-4.97 3.312-.802 7.175 0 0 1.637.802 1.899 1.44.158.415.72 1.577 1.091 2.347l.17.343-.05.039.066.643v.251c-.786.442-1.316.884-1.19 1.223.234.568.393 1.164.475 1.773 0 0 5.767 7.22 6.515 10.307 0 0 15.464 9.19 20.55 9.85l-.88 4.594a36.314 36.314 0 0 0-.201 3.743c.065.982-.611 5.457-.611 5.457s-.884 6.547-1.637 7.48c-.753.934-.611 4.862-.611 4.862a32.785 32.785 0 0 1-1.015 5.577c-.748 2.499-.202 5.582-.202 5.582s-2.581 5.91 3.596 1.904c0 0 3.028-.185 6.547-.305v1.795c-.043 3.383-.065 8.048.088 11.579.273 6.236 2.182 18.552 2.182 18.552v6.198a8.67 8.67 0 0 0-.174 1.774 11.49 11.49 0 0 0 1.67 6.21l.474 4.135s1.091 2.728 1.135 4.366a2.16 2.16 0 0 1-.049.392c-.041.209-.06.42-.055.633-.06 1.877 1.092 6.373 1.092 6.373s.07 4.53.747 4.791c.579.224-.775 2.614-1.178 3.274a1.126 1.126 0 0 1-.028-.13c-.049.087-.081.136-.081.136a3.18 3.18 0 0 0-.213 1.146c-.08.632.213 1.254.753 1.593 1.288.791 1.98 1.446.89 1.708a10.83 10.83 0 0 0-1.196.25c0-.048-.044-.103-.06-.152a.731.731 0 0 0-.425.758c.011.537.152 1.063.409 1.534a16.365 16.365 0 0 0 1.833 3.35l.546-.06c-.08.194-.182.377-.306.546a2.112 2.112 0 0 1-.763.676c-.285.17-.6.279-.928.322-.745.02-1.445.36-1.921.933-.677.873-1.091 2.068.235 3.116l4.85 1.67s8.343 1.09 7.902-.786c-.442-1.877-.71-3.509-.71-3.509a7.405 7.405 0 0 0-.682-3.323 3.275 3.275 0 0 0-.295-.49l.295-.034s.611-4.136 1.424-4.91c.191-.18.235-.322.186-.431.087-.224-.126-.355-.398-.432l-.06.164a4.09 4.09 0 0 0-.808-.087s-.273-2.183.606-2.958a.835.835 0 0 0 .174-.643 3.706 3.706 0 0 0-.093-.884l-.032.054a31.533 31.533 0 0 0-1.948-5.09s-.066-1.97.474-2.762c.54-.791-.065-10.7-.065-10.7s.202-4.79-.41-7.023c-.61-2.231.748-4.861.748-4.861v-.175l-.081-.758v.049c-.137-1.272-.393-3.569-.584-4.627-.273-1.512.065-8.73.065-8.73l1.222-3.084 2.183 5.315 2.302 7.093a6.028 6.028 0 0 1 1.174 3.012v.224c-.01.158-.01.317 0 .475-.039.895.207 1.78.704 2.526 0 0 .61 3.35 1.56 4.202.95.851.95 2.493.95 2.493s1.15 4.862 1.696 5.713c.459.72.48 2.696.475 3.274v.18s.158 1.735.153 3.198v.545-.038a5.098 5.098 0 0 1-.142 1.179v-.175c-.243.991-.36 2.009-.35 3.029-.032 1.746.236 3.82 1.294 5.025 1.834 2.1 2.985 1.839 2.985 1.839s-.884 2.625-1.97 3.154a.652.652 0 0 0-.115.07c0-.048 0-.103-.027-.152a1.281 1.281 0 0 0-.316.982 7.029 7.029 0 0 0 1.342 3.89c.255.257.57.444.917.546l-.17.104a3.813 3.813 0 0 1-.376.18 1.779 1.779 0 0 1-.545.142c-.745.02-1.445.36-1.921.933-.677.873-1.092 2.068.234 3.116l4.851 1.67s8.24 1.112 7.82-.787z"/></g><g><path fill="#2d293d" d="M360.163 436.076l-4.698-1.67c-1.293-1.048-.878-2.242-.223-3.116a2.472 2.472 0 0 1 1.855-.932 2.3 2.3 0 0 0 .9-.322c.298-.164.552-.396.742-.677a3.453 3.453 0 0 0 .546-1.817s5.156-1.506 6.548 0c.252.274.463.582.627.917a7.64 7.64 0 0 1 .655 3.323s.262 1.637.688 3.508c.425 1.872-7.64.786-7.64.786z"/></g><g><path fill="#2d293d" d="M383.14 433.784l-4.692-1.67c-1.298-1.047-.884-2.242-.229-3.11a2.467 2.467 0 0 1 1.86-.938c.19-.017.374-.065.546-.142a2.77 2.77 0 0 0 .36-.18c1.316-.72 1.283-2.494 1.283-2.494s5.15-1.511 6.548 0c.188.204.353.43.49.671a7.497 7.497 0 0 1 .792 3.569s.262 1.637.687 3.508c.426 1.872-7.644.786-7.644.786z"/></g><g opacity=".1"><path d="M365.838 427.542c.252.274.464.582.628.917l-7.727.895a3.454 3.454 0 0 0 .546-1.817s5.146-1.501 6.553.005z"/></g><g opacity=".1"><path d="M389.312 425.9v1.446c-1.2 1.98-7.011 1.55-8.698.545.125-.05.245-.111.36-.18 1.316-.72 1.283-2.494 1.283-2.494s5.15-1.511 6.548 0c.195.207.365.436.507.683z"/></g><g><path fill="#464353" d="M390.234 419.663c-.362.63-.67 1.288-.922 1.97v5.189c-1.31 2.182-8.141 1.446-9.058.262-.916-1.185-1.904-4.267-.856-4.791 1.047-.524 1.904-3.154 1.904-3.154s-1.091.262-2.887-1.839c-1.795-2.1-1.244-6.76-.916-7.88.327-1.118 0-4.855 0-4.855s.065-2.625-.459-3.482c-.523-.856-1.637-5.713-1.637-5.713s0-1.637-.916-2.493c-.917-.857-1.512-4.202-1.512-4.202a4.306 4.306 0 0 1-.655-2.82c.197-1.638-1.118-3.417-1.118-3.417l-2.232-7.093-2.1-5.32-1.18 3.083s-.332 7.224-.065 8.73c.268 1.506.655 5.511.655 5.511s-1.315 2.63-.72 4.862.393 7.022.393 7.022.59 9.915.065 10.706c-.524.791-.458 2.728-.458 2.728s2.69 5.779 1.833 6.548c-.856.77-.59 2.958-.59 2.958s1.84 0 1.054.785c-.786.786-1.38 4.911-1.38 4.911l-7.95 1.004a16.806 16.806 0 0 1-1.78-3.35c-1.047-2.428.197-2.183 1.255-2.428 1.06-.246.388-.917-.862-1.708-1.25-.791-.545-2.56-.545-2.56s1.904-3.218 1.25-3.48c-.655-.262-.726-4.791-.726-4.791s-1.31-5.386-.983-6.826c.328-1.44-1.053-4.911-1.053-4.911l-.458-4.136a11.371 11.371 0 0 1-1.419-7.825v-6.39s-1.839-12.342-2.106-18.552c-.164-3.994-.12-9.445-.065-12.85.032-1.904.065-3.17.065-3.17l28.374-2.952c.045 1.417.219 2.827.518 4.212.29 1.556.742 3.574 1.452 6.095 2.035 7.22.79 12.605.79 12.605l-.26 9.123s2.493 6.106 1.969 8.185a17.335 17.335 0 0 0-.546 3.82s5.582 13.33 4.993 17.204c-.59 3.874 1.844 9.953 1.844 9.953s.655 4.365 0 5.522z"/></g><g opacity=".05"><path d="M374.018 385.461l8.61-1.151"/></g><g opacity=".1"><path d="M381.4 375.874s.3 3.05-1.571 4.202"/></g><g opacity=".1"><path d="M380.871 366.156s-7.214 5.942-9.822 5.457"/></g><g opacity=".1"><path d="M363.312 388.25s-5.457 1.25-5.642 3.448"/></g><g opacity=".05"><path d="M364.518 415.625s-7.743 1.446-5.544 2.434a37.526 37.526 0 0 0 5.811 1.767s2.494.131-.267-4.201z"/></g><g opacity=".05"><g opacity=".05"><path d="M357.408 419.597a1.534 1.534 0 0 1-.71-1.124l-.076.142s-.726 1.768.546 2.56c.142.086.278.18.404.267.229-.044.48-.077.714-.137 1.037-.24.371-.9-.878-1.708z"/></g><g opacity=".05"><path d="M367.388 419.095c.213-.196.202-.704.076-1.353a3.663 3.663 0 0 0-.442 1.904c.078-.209.203-.397.366-.55z"/></g><g opacity=".05"><path d="M366.193 386.433a9.04 9.04 0 0 0-.546 2.411c.15-.562.35-1.11.6-1.637 0 0 .011-.316-.054-.774z"/></g><g opacity=".05"><path d="M383.932 382.984c.051-.237.075-.478.07-.72-.097.49-.163.95-.212 1.348.044-.208.087-.415.142-.628z"/></g><g opacity=".05"><path d="M366.007 409.776c.152-.47.219-.964.197-1.457a4.808 4.808 0 0 0-.377 1.838c.045-.134.105-.262.18-.381z"/></g><g opacity=".05"><path d="M367.633 422.15a26.276 26.276 0 0 0-.9 4.033l-7.94.922a16.436 16.436 0 0 1-1.778-3.35 5.86 5.86 0 0 1-.224-.578c-.474.218-.665.71-.038 2.182a16.256 16.256 0 0 0 1.779 3.345l7.934-.922s.594-4.136 1.38-4.91c.388-.421.142-.617-.213-.721z"/></g><g opacity=".05"><path d="M357.146 410.36s.065 4.534.72 4.796c.333-.748.546-1.457.257-1.577-.655-.262-.72-4.791-.72-4.791s-1.315-5.386-.983-6.832c.333-1.446-1.053-4.91-1.053-4.91l-.458-4.137a11.393 11.393 0 0 1-1.446-7.813v-6.379s-1.84-12.343-2.1-18.58c-.17-3.994-.121-9.445-.066-12.85v-1.637h-.224s-.033 1.26-.066 3.17c-.054 3.4-.103 8.857.066 12.85.262 6.238 2.1 18.58 2.1 18.58v6.368a11.355 11.355 0 0 0 1.48 7.88l.458 4.135s1.38 3.476 1.047 4.911c-.333 1.435.988 6.815.988 6.815z"/></g><g opacity=".05"><path d="M380.516 425.332a7.64 7.64 0 0 1-1.255-3.121c-.813.731.12 3.574.993 4.698.873 1.124 7.749 1.904 9.064-.267v-1.25c-1.78 1.762-7.929 1.059-8.802-.06z"/></g><g opacity=".05"><path d="M390.496 417.911c-.36.63-.666 1.29-.916 1.97v.922c.147-.338.36-.786.654-1.315.21-.519.31-1.077.29-1.637z"/></g><g opacity=".05"><path d="M380.92 418.948c.251-.505.468-1.026.65-1.56 0 0-1.092.261-2.893-1.84-1.287-1.527-1.358-4.414-1.178-6.302-.328 1.119-.857 5.779.916 7.88 1.163 1.38 2.03 1.735 2.505 1.822z"/></g><g opacity=".05"><path d="M377.499 404.39c.113 1.293.157 2.592.13 3.89a7.32 7.32 0 0 1 .132-.61c.333-1.092 0-4.857 0-4.857s.065-2.63-.459-3.481c-.523-.852-1.636-5.713-1.636-5.713s0-1.637-.917-2.494c-.917-.857-1.512-4.201-1.512-4.201a4.305 4.305 0 0 1-.66-2.821c.202-1.637-1.091-3.416-1.091-3.416l-2.232-7.094-2.128-5.287-1.184 3.083s0 .387-.038.998l.96-2.504 2.101 5.315 2.232 7.093s1.31 1.773 1.091 3.41a4.316 4.316 0 0 0 .682 2.794s.59 3.345 1.506 4.202c.917.856.922 2.493.922 2.493s1.092 4.857 1.637 5.713c.546.857.464 3.487.464 3.487z"/></g></g><g><path fill="#ffcdd3" d="M383.01 283.594l-.491 2.4.027 1.092v.785l-2.728.284-.306-.545c-.545-1.026-1.746-3.116-2.128-3.438-.507-.426-1.408-7.094-.327-6.695a2.86 2.86 0 0 1 1.528 1.38s5.396.568 4.425 4.737z"/></g><g opacity=".1"><path d="M382.568 287.844l-2.728.284-.306-.546a2.412 2.412 0 0 1 3.023-.496z"/></g><g><path fill="#dce6f2" d="M383.255 289.143l-3.606.84-.077-.546-.207-1.446a2.483 2.483 0 0 1 3.498-.48l.18.737z"/></g><g><path fill="#ffcdd3" d="M324.74 283.855l-3.853 2.074-.349-.731a77.592 77.592 0 0 1-1.091-2.341c-.23-.639-1.84-1.446-1.84-1.446-4.037-3.858.77-7.17.77-7.17 2.549-5.124 5.386 1.735 5.386 1.735s.393 3.618.114 3.858c-.278.24-.278 1.233-.278 1.233.368.702.68 1.432.933 2.183.148.382.208.605.208.605z"/></g><g opacity=".1"><path d="M324.74 283.855l-3.853 2.074-.349-.731c.546-.453 2.472-2.02 3.105-1.948.305.03.612.03.916 0 .12.382.18.605.18.605z"/></g><g><path fill="#dce6f2" d="M325.133 285.023l-4.333 2.133-.087-.933-.06-.638s2.51-2.155 3.274-2.073c.376.053.758.053 1.135 0l.049.78z"/></g><g><path fill="#ffcdd3" d="M372.506 299.516s-18.896 2.133-15.365.987c2.46-.802 3.437-2.362 3.644-4.098a9.98 9.98 0 0 0-.703-4.365 18.979 18.979 0 0 0-1.692-3.416s14.443-7.944 11.557-.72a11.329 11.329 0 0 0-.819 3.421 9.645 9.645 0 0 0 .366 3.46 10.318 10.318 0 0 0 3.012 4.73z"/></g><g opacity=".1"><path d="M369.947 287.899a11.328 11.328 0 0 0-.819 3.42c-1.364 1.141-2.853 1.092-4.768 1.092-1.474 0-3.105.36-4.279-.35a18.959 18.959 0 0 0-1.691-3.415s14.443-7.972 11.557-.748z"/></g><g><path fill="#ffcdd3" d="M356.29 285.078a7.814 7.814 0 1 1 15.627 0 7.814 7.814 0 0 1-15.628 0z"/></g><g opacity=".1"><path d="M372.506 299.515s-18.896 2.134-15.365.988c2.46-.802 3.437-2.363 3.644-4.098.939-1.02 2.827-1.757 4.044-2.144a5.636 5.636 0 0 1 3.421-.055c.44.119.859.303 1.244.546a10.318 10.318 0 0 0 3.012 4.763z"/></g><g opacity=".1"><path d="M383.256 289.143l-3.607.84-.077-.546a3.187 3.187 0 0 1 3.47-1.19z"/></g><g opacity=".1"><path d="M325.133 285.023l-4.333 2.134-.087-.934a31.89 31.89 0 0 1 4.365-1.931z"/></g><g opacity=".1"><path d="M379.981 347.129c-7.317 1.151-17.733 2.657-19.387 2.155-1.37-.42-5.745-.376-9.56-.245.033-1.904.066-3.17.066-3.17l28.374-2.952c.042 1.416.212 2.826.507 4.212z"/></g><g><path fill="#3f3d56" d="M387.277 345.388s-24.096 4.137-26.683 3.345c-2.586-.79-15.862.071-15.862.071-5.975 4-3.475-1.904-3.475-1.904s-.546-3.088.196-5.582c.481-1.83.81-3.697.982-5.582 0 0-.13-3.94.59-4.856.72-.917 1.576-7.487 1.576-7.487s.66-4.463.595-5.456c-.065-.993.197-3.738.197-3.738l.85-4.6c-4.91-.655-19.894-9.849-19.894-9.849-.72-3.083-6.302-10.307-6.302-10.307a7.6 7.6 0 0 0-.458-1.774c-.393-1.047 5.516-3.148 5.516-3.148s4.398 5.386 5.315 6.826c.916 1.44 4.07 4.136 4.07 4.136.49-.049.986.016 1.446.191h.077c1.055.416 2.044.984 2.936 1.686a5.691 5.691 0 0 1 4.005 1.512s2.695-.393 3.153.065c.459.458 2.729 0 2.729 0s2.302-4.856 3.82-3.448c1.516 1.407 7.917 1.347 7.917 1.347.856-1.135 2.93-1.948 4.234-2.368a5.637 5.637 0 0 1 3.421-.054c.487.135.945.357 1.354.655l3.884 3.819s1.092-1.446.988-1.773c-.104-.328 1.315-.59 1.315-.59s1.904-.589 2.625-.791c.72-.202 1.386.59 1.44.655a7.69 7.69 0 0 1-.327-2.887c.06-.86-.223-1.709-.786-2.362 2.32-5.61 7.508-.862 7.508-.862s.59 3.083.066 4.267c-.524 1.184.545 3.677.393 4.332-.153.655.261 1.773.261 3.018a17.947 17.947 0 0 1-1.047 4.665c-.398 1.048-3.547 3.41-3.547 3.41s-.196 3.743-1.577 5.91c-1.38 2.166-.546 9.587-.546 9.587s1.31 5.778 2.952 7.639c1.643 1.86 4.093 12.282 4.093 12.282z"/></g><g opacity=".1"><path d="M352.153 302.211s-.72-2.183-1.38-2.368a15.55 15.55 0 0 1-1.905-.851l.426-.808s2.466.677 2.86 1.397c.392.72 0 2.63 0 2.63z"/></g><g opacity=".1"><path d="M338.976 297.415c-.131.66-5.97 1.25-5.97 1.25l2.952-2.964.077.028c1.057.415 2.048.983 2.94 1.686z"/></g><g><path fill="#575988" d="M321.526 288.406a.524.524 0 1 1 1.047 0 .524.524 0 0 1-1.047 0z"/></g><g><path fill="#575988" d="M322.197 289.46a.524.524 0 1 1 1.048 0 .524.524 0 0 1-1.048 0z"/></g><g><path fill="#575988" d="M322.857 290.425a.524.524 0 1 1 1.048 0 .524.524 0 0 1-1.048 0z"/></g><g><path fill="#575988" d="M323.545 291.478a.524.524 0 1 1 1.047 0 .524.524 0 0 1-1.047 0z"/></g><g><path fill="#575988" d="M385.53 291.418a.426.426 0 1 1 .852 0 .426.426 0 0 1-.851 0z"/></g><g><path fill="#575988" d="M385.596 292.39a.426.426 0 1 1 .851 0 .426.426 0 0 1-.85 0z"/></g><g><path fill="#575988" d="M385.65 293.355a.426.426 0 1 1 .852 0 .426.426 0 0 1-.851 0z"/></g><g opacity=".1"><path d="M352.186 320c-.06-.077 14.733 18.611 26.23 7.813"/></g><g opacity=".1"><path d="M343.685 329.717s8.856.24 9.783 2.789v2.652c-.51.28-1.127.28-1.637 0-.895-.48-6.247-3.203-8.135-1.894z"/></g><g><path fill="#3f3d56" d="M343.848 329.717s8.469.23 9.358 2.658v2.532c-.49.27-1.086.27-1.577 0-.856-.464-6.002-3.056-7.78-1.806z"/></g><g opacity=".1"><path d="M348.52 310.467a28.518 28.518 0 0 0 3.431 5.887 22.995 22.995 0 0 0 5.38 5.195s-8.665-9.844-8.812-11.082z"/></g><g opacity=".1"><path d="M345.622 300.198s1.478 6.378 5.282 8.544"/></g><g opacity=".1"><path d="M343.34 300.841c-.037-.12-1.314 5.042 4.912 7.901"/></g><g opacity=".1"><path d="M382.028 296.563c-.098 0 3.066 2.02 3.928 2.953"/></g><g><path fill="#2d293d" d="M361.991 292.155c.061.416.277.795.606 1.058.23.109.482.165.737.164 2.384.147 4.861.25 7.093-.666a2.64 2.64 0 0 0 1.091-.715 4.25 4.25 0 0 0 .579-1.719c.31-1.167.971-2.182 1.446-3.317a11.148 11.148 0 0 0 .77-5.959 3.989 3.989 0 0 0-.596-1.746c-.633-.9-1.784-1.266-2.619-1.986-.835-.72-1.375-1.817-2.346-2.357a4.562 4.562 0 0 0-2.947-.262 15.566 15.566 0 0 0-5.5 2.068c-.545.35-1.19.748-1.839.628a2.527 2.527 0 0 1-1.353-1.037 7.268 7.268 0 0 0-.584 3.4c.027.169.027.342 0 .512-.083.205-.208.39-.365.546-.59.682-.955 1.762-.377 2.45.257.3.644.464.89.77.442.545.289 1.336.278 2.04-.021.244.04.488.175.693.26.24.626.326.966.23.332-.1.68-.134 1.025-.1.367.123.682.366.895.688 1.08 1.397 1.512 2.93 1.975 4.617z"/></g><g opacity=".1"><g opacity=".1"><path d="M371.715 291.396a2.58 2.58 0 0 1-1.091.71c-2.183.922-4.682.812-7.061.665a1.605 1.605 0 0 1-.737-.164 1.637 1.637 0 0 1-.61-1.053c-.465-1.686-.89-3.224-1.993-4.621a1.704 1.704 0 0 0-.894-.688 2.643 2.643 0 0 0-1.026.098c-.34.097-.706.01-.966-.229a1.057 1.057 0 0 1-.17-.693c0-.704.159-1.495-.283-2.04-.246-.306-.633-.47-.89-.77a1.539 1.539 0 0 1-.147-1.571c-.42.665-.6 1.517-.114 2.095.256.3.643.464.889.77.442.545.29 1.336.278 2.04-.021.244.04.488.175.693.26.24.626.327.966.23.332-.1.68-.134 1.026-.099.366.123.681.365.895.688 1.09 1.402 1.527 2.935 1.991 4.621.06.417.277.795.606 1.059.23.109.482.165.736.164 2.385.147 4.862.25 7.094-.666a2.68 2.68 0 0 0 1.091-.715c.149-.19.263-.404.338-.633-.032.038-.054.082-.103.11z"/></g></g><g opacity=".1"><path d="M360.595 296.891s9.761 1.293 10.64-.175"/></g><g opacity=".1"><path d="M379.572 292.853s5.419 0 6.614 2.04"/></g></g></g></svg>